<?xml version="1.0" encoding="UTF-8" standalone="no"?>
<!-- Created with Inkscape (http://www.inkscape.org/) -->

<svg
   width="210mm"
   height="297mm"
   viewBox="0 0 210 297"
   version="1.1"
   id="svg2807"
   xml:space="preserve"
   inkscape:version="1.2.2 (b0a8486541, 2022-12-01)"
   sodipodi:docname="how-it-works-choose-a-tree.svg"
   xmlns:inkscape="http://www.inkscape.org/namespaces/inkscape"
   xmlns:sodipodi="http://sodipodi.sourceforge.net/DTD/sodipodi-0.dtd"
   xmlns="http://www.w3.org/2000/svg"
   xmlns:svg="http://www.w3.org/2000/svg"><sodipodi:namedview
     id="namedview2809"
     pagecolor="#505050"
     bordercolor="#eeeeee"
     borderopacity="1"
     inkscape:showpageshadow="0"
     inkscape:pageopacity="0"
     inkscape:pagecheckerboard="0"
     inkscape:deskcolor="#505050"
     inkscape:document-units="mm"
     showgrid="false"
     showguides="true"
     inkscape:zoom="0.69664703"
     inkscape:cx="626.57269"
     inkscape:cy="744.99708"
     inkscape:window-width="1920"
     inkscape:window-height="1043"
     inkscape:window-x="0"
     inkscape:window-y="0"
     inkscape:window-maximized="1"
     inkscape:current-layer="layer1"><sodipodi:guide
       position="103.30435,415.49618"
       orientation="0,-1"
       id="guide3000"
       inkscape:locked="false" /></sodipodi:namedview><defs
     id="defs2804"><clipPath
       clipPathUnits="userSpaceOnUse"
       id="clipPath2735"><rect
         style="opacity:0.9;fill:#1b1b1b;stroke-width:0.558001"
         id="rect2737"
         width="100.53451"
         height="128.7818"
         x="54.597069"
         y="111.91945" /></clipPath></defs><g
     inkscape:label="Layer 1"
     inkscape:groupmode="layer"
     id="layer1"><g
       id="g3050"
       transform="matrix(0.61083185,0,0,0.61083185,7.9477001,138.04221)"><path
         id="path2998"
         style="fill:#000000;stroke-width:0.285575"
         d="m 34.841051,129.79294 c -0.05413,-0.0554 -0.571734,0.84465 -1.150317,1.99988 -1.665578,3.32557 -3.205786,5.85951 -4.609021,7.58351 -1.223355,1.50304 -1.255243,1.58497 -0.549321,1.40767 0.412226,-0.1036 0.749825,-0.11623 0.749825,-0.0284 0,0.46358 -1.300517,2.59463 -2.430342,3.98271 l -1.287777,1.58181 h 0.859896 c 0.47284,0 0.858495,0.0966 0.856795,0.21446 -0.0041,0.28747 -2.186462,2.59829 -3.38739,3.58686 -0.530001,0.43628 -0.889674,0.86675 -0.799434,0.95705 0.158608,0.15871 2.730593,-0.24349 4.189925,-0.65526 0.663406,-0.18719 0.638027,-0.11719 -0.357084,0.99115 -0.588793,0.6558 -1.070219,1.36534 -1.070219,1.57665 0,0.21131 -0.771714,1.12054 -1.714624,2.02055 -1.601509,1.52863 -1.662392,1.6329 -0.927592,1.5844 0.432622,-0.0287 0.890056,-0.0383 1.016992,-0.0217 0.86888,0.11397 -5.963233,7.1787 -8.482686,8.77155 -0.720737,0.45567 -1.310752,0.94467 -1.311032,1.08624 -2.91e-4,0.1473 1.221937,0.1827 2.854607,0.0832 1.570112,-0.0957 2.854606,-0.11726 2.854606,-0.0481 0,0.64146 -3.807441,6.06971 -6.333981,9.03046 -0.755635,0.8855 -1.374076,1.6991 -1.374076,1.80764 0,0.10853 0.442802,0.15884 0.983919,0.11214 0.541119,-0.0467 1.066244,-0.002 1.166854,0.0982 0.328633,0.32887 -5.4393943,5.76697 -7.5147873,7.08484 -1.113459,0.70705 -2.0320193,1.36515 -2.0412193,1.46245 -0.027639,0.29191 1.9756893,0.53133 4.4793133,0.53433 1.2953433,0.002 2.3544453,0.0992 2.3533453,0.21704 -0.0011,0.11784 -0.547194,0.56621 -1.213362,0.99581 -0.7424323,0.47877 -1.0178123,0.78248 -0.7115853,0.78548 0.2747703,0.002 0.4991943,0.092 0.4991943,0.19895 0,0.107 -0.7186163,1.13401 -1.5973183,2.28203 -1.262768,1.64981 -3.128193,3.4834 -4.6591478,4.58009 -0.4560505,0.32672 0.5132484,0.29833 2.6680548,-0.078 1.381341,-0.24129 2.593376,-0.35524 2.693376,-0.25321 0.3199,0.3264 -4.8893334,5.07104 -7.4641448,6.79855 -1.36782573,0.91771 -2.55510203,1.7787 -2.63808193,1.91306 -0.2250388,0.36437 1.64576683,0.81856 4.92373053,1.1958 2.7838492,0.32036 2.8972262,0.36005 2.4535972,0.85059 -0.430165,0.47563 -0.42968,0.51418 0.0072,0.51418 0.718279,0 0.586181,0.36341 -0.806152,2.21692 -1.0888468,1.44949 -2.8297386,3.1426 -4.6860197,4.55734 -0.40947463,0.31205 -0.39700443,0.35064 0.1136881,0.35864 0.3145227,0.005 1.438196,-0.23893 2.497522,-0.54209 1.0593269,-0.30315 1.9264976,-0.48716 1.9264976,-0.40876 0,0.0784 -0.4129014,0.74414 -0.9172569,1.4795 -1.4999615,2.18695 -4.78977053,5.26944 -6.4337158,6.02805 -0.8243092,0.38038 -1.4991333,0.78333 -1.4991333,0.89504 0,0.43416 4.8339153,1.74021 7.137032,1.92856 l 2.426726,0.19844 -2.4014045,1.09761 c -1.7492523,0.79945 -2.2918003,1.16647 -1.9983276,1.35237 0.6423973,0.40694 4.8393101,0.30404 7.3964481,-0.18138 1.2903443,-0.24492 2.4002933,-0.3903 2.4670333,-0.3235 0.06674,0.0668 -0.350119,0.68476 -0.926558,1.37356 l -1.047998,1.25212 1.13223,0.0858 c 2.452273,0.18504 6.987266,-1.26255 9.761162,-3.11557 l 0.965832,-0.64492 -0.367936,0.69453 c -0.546359,1.03225 -3.706217,4.04015 -4.925281,4.68809 -0.58455,0.31069 -1.062984,0.68215 -1.062984,0.82579 0,0.44557 5.997482,-0.0245 8.135937,-0.63769 1.099079,-0.31517 2.244539,-0.6674 2.545065,-0.7829 0.381757,-0.14673 0.484246,-0.10948 0.340031,0.12402 -0.678072,1.09792 3.138973,-0.34286 5.604825,-2.11563 l 1.389063,-0.99839 -0.188619,1.08107 c -0.103591,0.59481 -0.559778,1.84132 -1.013892,2.76986 -0.454113,0.92854 -0.825789,1.73774 -0.825789,1.79834 0,0.2149 2.161393,-0.28767 3.5295,-0.82062 1.67947,-0.65423 3.40948,-1.82719 4.734078,-3.21014 0.54109,-0.56493 1.074391,-1.02681 1.184941,-1.02681 0.11055,0 0.355186,0.64278 0.543636,1.42885 0.18845,0.7861 0.468848,1.5075 0.623218,1.603 0.15437,0.0955 1.235545,-0.29855 2.402954,-0.87591 1.771598,-0.87619 2.539202,-1.52934 3.115572,-2.65152 0.01893,-0.0369 0.924895,0.37278 2.013314,0.91054 3.116767,1.5399 7.260022,2.40221 7.260022,1.51102 0,-0.19744 -0.126274,-0.79942 -0.280603,-1.3379 -0.15435,-0.53848 -0.236418,-1.02294 -0.182418,-1.07694 0.05398,-0.054 1.246775,0.28645 2.650484,0.75706 2.685807,0.90046 7.360306,1.5888 8.736934,1.28623 l 0.813388,-0.17881 -1.416451,-1.49913 c -2.091588,-2.21309 -4.071885,-6.37151 -2.678907,-5.62549 0.820329,0.43934 4.783459,1.1787 6.262667,1.1684 l 1.367875,-0.01 -1.141532,-0.91209 c -3.056017,-2.4399 -8.707479,-8.50933 -8.707479,-9.35188 0,-0.13582 0.76844,0.0652 1.707389,0.447 0.938949,0.3818 1.851484,0.69453 2.027784,0.69453 0.176299,0 -0.441317,-0.86799 -1.372527,-1.92856 -2.562777,-2.9188 -4.05964,-4.90893 -4.51807,-6.00687 -0.22749,-0.54484 -0.413411,-1.01275 -0.413411,-1.04025 0,-0.0275 0.827111,0.002 1.83813,0.0667 1.752689,0.11168 7.446254,-0.4004 7.956104,-0.71571 0.13308,-0.0823 -0.635201,-0.73589 -1.70739,-1.45211 -2.820997,-1.88441 -5.631377,-4.24601 -8.158675,-6.85592 -1.216838,-1.2566 -2.212268,-2.34959 -2.212268,-2.42879 0,-0.079 1.12419,-0.0781 2.498039,0.002 1.669078,0.0974 2.403018,0.0508 2.212268,-0.14056 -0.15701,-0.15751 -1.441507,-1.2489 -2.854606,-2.42518 -1.413109,-1.17627 -2.936957,-2.53135 -3.386357,-3.01118 l -0.817004,-0.8723 1.388029,-0.1881 c 2.649267,-0.35953 7.257832,-1.70229 7.226432,-2.1053 -0.0077,-0.0988 -1.113862,-0.87566 -2.457731,-1.72651 -2.364918,-1.4973 -6.959201,-5.5455 -7.55251,-6.65489 -0.26789,-0.50091 -0.210142,-0.5289 0.727087,-0.35295 0.559909,0.10527 1.018026,0.10137 1.018026,-0.009 0,-0.11014 -0.652375,-0.92813 -1.449524,-1.81746 -1.815348,-2.0253 -4.64232,-6.22798 -4.42557,-6.57893 0.08938,-0.14473 -0.02945,-0.33675 -0.264067,-0.42685 -1.026179,-0.39406 -0.273441,-0.66613 1.500167,-0.54208 1.059819,0.0741 2.342326,0.0248 2.849956,-0.10956 l 0.922941,-0.24443 -2.41484,-2.07481 c -2.286768,-1.96513 -6.416762,-6.41157 -7.042981,-7.58248 -0.26471,-0.49496 -0.209281,-0.52298 0.658358,-0.33228 0.783069,0.17211 0.893156,0.13985 0.634586,-0.18603 -1.650858,-2.08061 -3.530017,-4.63511 -3.530017,-4.79868 0,-0.1116 0.803068,-0.1503 1.784387,-0.0863 l 1.784388,0.11627 -1.086756,-0.91829 c -1.374128,-1.16058 -3.110891,-3.50289 -3.93671,-5.30975 -0.35091,-0.76776 -0.700831,-1.51231 -0.777731,-1.65468 -0.07876,-0.1458 0.248833,-0.18098 0.750342,-0.0806 l 0.890385,0.17828 -1.572514,-2.03657 c -0.864789,-1.12005 -2.541478,-3.97608 -3.726387,-6.3469 -1.184911,-2.37081 -2.198963,-4.35621 -2.253093,-4.41161 z" /><path
         id="path2998-6"
         style="fill:#000000;stroke-width:0.410707"
         d="m 132.49179,84.395202 c -0.0778,-0.0797 -0.82225,1.21475 -1.65436,2.87617 -2.39538,4.78276 -4.61047,8.42701 -6.62858,10.90641 -1.75939,2.161638 -1.80525,2.279468 -0.79002,2.024478 0.59286,-0.14899 1.07839,-0.16716 1.07839,-0.0408 0,0.66671 -1.87038,3.73153 -3.49527,5.72783 l -1.85204,2.27492 h 1.23667 c 0.68003,0 1.23468,0.13893 1.23223,0.30843 -0.006,0.41343 -3.14451,3.7368 -4.87166,5.15853 -0.76223,0.62745 -1.27951,1.24654 -1.14973,1.37641 0.22811,0.22825 3.92708,-0.35018 6.02585,-0.94238 0.9541,-0.26921 0.9176,-0.16854 -0.51354,1.42545 -0.8468,0.94315 -1.53917,1.96359 -1.53917,2.2675 0,0.3039 -1.10986,1.61153 -2.46593,2.9059 -2.30326,2.19844 -2.39081,2.3484 -1.33404,2.27864 0.62218,-0.0413 1.28006,-0.0551 1.46261,-0.0312 1.2496,0.1639 -8.57617,10.32422 -12.19958,12.61502 -1.03655,0.65533 -1.8851,1.3586 -1.8855,1.5622 -4.2e-4,0.21185 1.75736,0.26276 4.10542,0.11966 2.2581,-0.13763 4.10543,-0.16864 4.10543,-0.0692 0,0.92253 -5.47576,8.72931 -9.10937,12.98738 -1.08674,1.27351 -1.97617,2.44361 -1.97617,2.59971 0,0.15608 0.63683,0.22844 1.41505,0.16127 0.77823,-0.0672 1.53344,-0.003 1.67814,0.14123 0.47264,0.47298 -7.822802,8.29391 -10.807582,10.18924 -1.60135,1.01686 -2.9224,1.96333 -2.93563,2.10326 -0.0397,0.41982 2.84139,0.76415 6.44204,0.76846 1.86292,0.003 3.38611,0.14267 3.38453,0.31214 -0.001,0.16948 -0.78697,0.81431 -1.74504,1.43215 -1.06774,0.68856 -1.46379,1.12534 -1.02338,1.12966 0.39517,0.003 0.71793,0.13231 0.71793,0.28612 0,0.15389 -1.03349,1.63091 -2.29723,3.28196 -1.81608,2.37272 -4.49888,5.00974 -6.70066,6.58697 -0.65588,0.46988 0.73814,0.42905 3.83713,-0.11217 1.9866,-0.34702 3.72973,-0.5109 3.87355,-0.36416 0.46007,0.46942 -7.03173,7.29304 -10.73475,9.7775 -1.96717,1.31983 -3.67468,2.55808 -3.79402,2.75131 -0.32365,0.52403 2.3669,1.17724 7.08118,1.71977 4.00366,0.46074 4.16672,0.51782 3.5287,1.2233 -0.61865,0.68404 -0.61795,0.73948 0.0104,0.73948 1.03301,0 0.84303,0.52265 -1.15939,3.18832 -1.56595,2.08462 -4.06966,4.51961 -6.73932,6.55425 -0.58889,0.44879 -0.57096,0.50429 0.16351,0.51579 0.45234,0.007 2.06838,-0.34362 3.59187,-0.77962 1.5235,-0.43598 2.77064,-0.70062 2.77064,-0.58787 0,0.11276 -0.59383,1.07021 -1.31918,2.12778 -2.1572,3.14522 -6.88852,7.57838 -9.2528,8.66939 -1.1855,0.54706 -2.15602,1.12657 -2.15602,1.28723 0,0.6244 6.95202,2.50272 10.2643,2.7736 l 3.49006,0.2854 -3.45364,1.57855 c -2.51573,1.14975 -3.29601,1.67759 -2.87395,1.94495 0.92388,0.58525 6.95978,0.43726 10.63738,-0.26086 1.85575,-0.35224 3.45206,-0.56132 3.54804,-0.46525 0.0959,0.0961 -0.50353,0.9848 -1.33256,1.97542 l -1.5072,1.80077 1.62834,0.12339 c 3.526802,0.26612 10.048922,-1.81577 14.038262,-4.48073 l 1.38903,-0.92751 -0.52915,0.99886 c -0.78576,1.48455 -5.33019,5.81044 -7.08341,6.74229 -0.84069,0.44683 -1.52877,0.98105 -1.52877,1.18763 0,0.64081 8.62543,-0.0352 11.70091,-0.91711 1.58067,-0.45327 3.22804,-0.95984 3.66024,-1.12595 0.54904,-0.21102 0.69644,-0.15745 0.48904,0.17836 -0.9752,1.57901 4.51438,-0.49309 8.06071,-3.04264 l 1.99771,-1.43586 -0.27127,1.55477 c -0.14898,0.85544 -0.80505,2.64814 -1.45815,3.98354 -0.65309,1.3354 -1.18763,2.49917 -1.18763,2.58633 0,0.30906 3.10847,-0.41372 5.07604,-1.1802 2.41537,-0.94089 4.90343,-2.62782 6.80843,-4.61674 0.77819,-0.81247 1.54516,-1.47673 1.70415,-1.47673 0.15899,0 0.51083,0.92443 0.78185,2.05493 0.27103,1.13055 0.67429,2.16805 0.8963,2.3054 0.22201,0.13734 1.77693,-0.42937 3.45587,-1.25971 2.54787,-1.26012 3.65181,-2.19946 4.48073,-3.81335 0.0272,-0.0531 1.33017,0.53612 2.89551,1.30951 4.48244,2.21465 10.44118,3.4548 10.44118,2.17311 0,-0.28395 -0.18162,-1.1497 -0.40356,-1.92413 -0.22198,-0.77443 -0.34001,-1.47117 -0.26235,-1.54883 0.0777,-0.0777 1.79308,0.41197 3.81186,1.08879 3.86266,1.29501 10.58541,2.28497 12.56524,1.84982 l 1.16979,-0.25716 -2.03711,-2.15601 c -3.00807,-3.18281 -5.85607,-9.16335 -3.85272,-8.09044 1.17976,0.63185 6.87944,1.69518 9.0068,1.68036 l 1.96725,-0.0144 -1.64172,-1.31174 c -4.39509,-3.50901 -12.52288,-12.23791 -12.52288,-13.44964 0,-0.19534 1.10515,0.0938 2.45553,0.64286 1.35036,0.5491 2.66275,0.99886 2.9163,0.99886 0.25355,0 -0.6347,-1.24833 -1.97394,-2.77361 -3.68571,-4.19775 -5.83847,-7.0599 -6.49778,-8.63893 -0.32717,-0.78358 -0.59455,-1.45651 -0.59455,-1.49606 0,-0.0395 1.18953,0.003 2.64355,0.0959 2.52068,0.16062 10.70903,-0.57584 11.44228,-1.02931 0.19139,-0.11836 -0.91354,-1.05834 -2.45553,-2.08839 -4.05709,-2.71011 -8.09891,-6.10651 -11.73361,-9.86001 -1.75002,-1.80721 -3.18163,-3.37912 -3.18163,-3.49303 0,-0.11361 1.61678,-0.11232 3.59262,0.003 2.40043,0.14008 3.45596,0.0731 3.18163,-0.20215 -0.22581,-0.22653 -2.07314,-1.79614 -4.10543,-3.48783 -2.0323,-1.69169 -4.22384,-3.64053 -4.87016,-4.33061 l -1.175,-1.25452 1.99623,-0.27052 c 3.81011,-0.51707 10.43803,-2.44819 10.39287,-3.02779 -0.0115,-0.14209 -1.60193,-1.25935 -3.53465,-2.48302 -3.40117,-2.15338 -10.00855,-7.9754 -10.86183,-9.5709 -0.38527,-0.72039 -0.30222,-0.76065 1.04568,-0.5076 0.80525,0.15139 1.46411,0.14579 1.46411,-0.0129 0,-0.1584 -0.93824,-1.33481 -2.08468,-2.61382 -2.61079,-2.91274 -6.67647,-8.95693 -6.36474,-9.46165 0.12857,-0.20815 -0.0423,-0.48431 -0.37978,-0.61389 -1.47581,-0.56673 -0.39326,-0.95801 2.15751,-0.7796 1.5242,0.10656 3.36868,0.0357 4.09874,-0.15757 l 1.32735,-0.35153 -3.47297,-2.98394 c -3.28877,-2.82621 -9.22842,-9.22096 -10.12903,-10.90494 -0.3807,-0.71184 -0.30099,-0.75213 0.94683,-0.47787 1.12618,0.24752 1.28451,0.20112 0.91264,-0.26755 -2.37423,-2.99228 -5.07679,-6.6661 -5.07679,-6.90134 0,-0.1605 1.15496,-0.21616 2.56627,-0.12411 l 2.56626,0.16721 -1.56295,-1.32066 c -1.97622,-1.66912 -4.474,-5.03777 -5.66168,-7.63635 -0.50467,-1.10417 -1.00791,-2.17496 -1.11851,-2.37972 -0.11333,-0.20968 0.35788,-0.26028 1.07912,-0.11591 l 1.28054,0.25639 -2.26155,-2.928938 c -1.24371,-1.61083 -3.65509,-5.7183 -5.3592,-9.12795 -1.7041,-3.40964 -3.16249,-6.26499 -3.24033,-6.34467 z" /><path
         id="path2998-7"
         style="fill:#000000;stroke-width:0.518409"
         d="m 252.94474,12.474755 c -0.0815,-0.12118 -0.86135,1.847559 -1.73301,4.374471 -2.50928,7.274241 -4.82969,12.816898 -6.94372,16.587918 -1.84304,3.2877 -1.89109,3.466911 -0.82758,3.079091 0.62103,-0.226611 1.12964,-0.254238 1.12964,-0.06212 0,1.014019 -1.95928,5.675407 -3.66143,8.711647 l -1.94011,3.459999 h 1.29549 c 0.71235,0 1.29337,0.2113 1.29081,0.469103 -0.006,0.628802 -3.29403,5.683413 -5.10327,7.845779 -0.79848,0.954304 -1.34035,1.8959 -1.2044,2.093419 0.23895,0.347157 4.11377,-0.532602 6.31234,-1.433294 0.99945,-0.409453 0.96121,-0.256338 -0.53797,2.168009 -0.88705,1.434475 -1.61234,2.986499 -1.61234,3.448712 0,0.462212 -1.16263,2.451032 -2.58317,4.419684 -2.41275,3.343674 -2.50447,3.571751 -1.39746,3.465664 0.65177,-0.06278 1.34091,-0.08378 1.53215,-0.04747 1.30901,0.249294 -8.98391,15.70245 -12.7796,19.186597 -1.08582,0.996717 -1.97471,2.066347 -1.97514,2.376007 -4.3e-4,0.3222 1.84092,0.39963 4.30062,0.18199 2.36545,-0.20933 4.30061,-0.25649 4.30061,-0.10521 0,1.40311 -5.73611,13.276689 -9.54247,19.752939 -1.1384,1.93691 -2.07012,3.71655 -2.07012,3.95397 0,0.23739 0.66711,0.34744 1.48233,0.24529 0.81522,-0.10215 1.60635,-0.004 1.75792,0.2148 0.4951,0.71936 -8.19472,12.61448 -11.3214,15.49714 -1.67749,1.54658 -3.06134,2.98609 -3.0752,3.19892 -0.0416,0.63851 2.97647,1.16221 6.74831,1.16877 1.9515,0.004 3.54709,0.21699 3.54543,0.47475 -0.002,0.25776 -0.82437,1.23851 -1.82799,2.1782 -1.11851,1.04725 -1.53339,1.71157 -1.07204,1.71813 0.41396,0.004 0.75206,0.20124 0.75206,0.43518 0,0.23405 -1.08263,2.4805 -2.40644,4.99164 -1.90242,3.60874 -4.71278,7.61947 -7.01924,10.01834 -0.68706,0.71465 0.77324,0.65255 4.01956,-0.17062 2.08106,-0.52779 3.90705,-0.77704 4.05771,-0.55386 0.48194,0.71395 -7.36603,11.09222 -11.24511,14.87092 -2.0607,2.00737 -3.8494,3.89067 -3.97441,4.18456 -0.33903,0.79702 2.47943,1.7905 7.41785,2.61566 4.19401,0.70074 4.36482,0.78756 3.69647,1.86055 -0.64807,1.04038 -0.64734,1.1247 0.0109,1.1247 1.08212,0 0.88311,0.79491 -1.21451,4.84922 -1.6404,3.17056 -4.26314,6.87402 -7.05973,9.96857 -0.61689,0.68257 -0.5981,0.76698 0.17128,0.78448 0.47385,0.0109 2.16672,-0.52263 3.76264,-1.18575 1.59593,-0.6631 2.90237,-1.0656 2.90237,-0.89411 0,0.17149 -0.62205,1.62771 -1.38189,3.23621 -2.25977,4.78366 -7.21603,11.5262 -9.69272,13.18556 -1.24186,0.83203 -2.25852,1.71343 -2.25852,1.95778 0,0.94967 7.28254,3.80648 10.7523,4.21847 l 3.65598,0.43406 -3.61783,2.40087 c -2.63534,1.74869 -3.45272,2.5515 -3.01058,2.95813 0.9678,0.89013 7.29066,0.66505 11.14311,-0.39674 1.94397,-0.53573 3.61617,-0.85373 3.71671,-0.70762 0.10055,0.14612 -0.52747,1.49783 -1.3959,3.00448 l -1.57886,2.73885 1.70576,0.18768 c 3.69447,0.40475 10.52667,-2.76166 14.70569,-6.8149 l 1.45507,-1.41068 -0.55432,1.5192 c -0.82311,2.25791 -5.58359,8.83729 -7.42019,10.25457 -0.88065,0.67959 -1.60143,1.49211 -1.60143,1.80631 0,0.97462 9.03551,-0.0536 12.25721,-1.39487 1.65582,-0.68939 3.38151,-1.45985 3.83426,-1.71249 0.57514,-0.32095 0.72955,-0.23947 0.51227,0.27128 -1.02155,2.40155 4.72903,-0.74996 8.44396,-4.62766 l 2.09269,-2.18384 -0.28417,2.36469 c -0.15606,1.30107 -0.84333,4.02765 -1.52747,6.0587 -0.68414,2.03106 -1.2441,3.80108 -1.2441,3.93363 0,0.47007 3.25625,-0.62924 5.31737,-1.79499 2.53021,-1.43105 5.13656,-3.99674 7.13214,-7.02176 0.81518,-1.23571 1.61862,-2.24601 1.78517,-2.24601 0.16655,0 0.53511,1.406 0.81902,3.12542 0.28391,1.71949 0.70633,3.29746 0.9389,3.50635 0.23256,0.20889 1.86141,-0.65304 3.62018,-1.91594 2.669,-1.91655 3.82543,-3.34522 4.69376,-5.79984 0.0285,-0.0807 1.39339,0.8154 3.03315,1.99168 4.69558,3.36833 10.93761,5.25452 10.93761,3.30516 0,-0.43188 -0.19025,-1.74863 -0.42276,-2.92648 -0.23253,-1.17785 -0.35617,-2.23755 -0.27481,-2.35566 0.0814,-0.11812 1.87833,0.62657 3.99309,1.65596 4.04631,1.96964 11.08866,3.47529 13.16262,2.81346 l 1.22542,-0.39112 -2.13396,-3.27915 c -3.15108,-4.84084 -6.1345,-13.93683 -4.03591,-12.30501 1.23587,0.961 7.20652,2.57825 9.43503,2.55572 l 2.06078,-0.0219 -1.71979,-1.99508 c -4.60403,-5.33696 -13.11826,-18.61303 -13.11826,-20.45599 0,-0.29709 1.1577,0.14261 2.57227,0.97775 1.41458,0.83514 2.78937,1.51919 3.05497,1.51919 0.26561,0 -0.66487,-1.89861 -2.06779,-4.21847 -3.86095,-6.38448 -6.11605,-10.73763 -6.8067,-13.13922 -0.34272,-1.19177 -0.62282,-2.21526 -0.62282,-2.27541 0,-0.0601 1.24608,0.004 2.76924,0.1459 2.64051,0.24428 11.21815,-0.87583 11.98626,-1.56552 0.2005,-0.18003 -0.95696,-1.60967 -2.57227,-3.1763 -4.24996,-4.1219 -8.48394,-9.28758 -12.29145,-14.99641 -1.83323,-2.74865 -3.33289,-5.13942 -3.33289,-5.31266 0,-0.1728 1.69365,-0.17083 3.76342,0.004 2.51456,0.21305 3.62027,0.11111 3.3329,-0.30746 -0.23655,-0.34453 -2.17171,-2.7318 -4.30062,-5.30476 -2.12892,-2.57293 -4.42468,-5.53699 -5.10172,-6.58655 l -1.23085,-1.90804 2.09114,-0.41145 c 3.99126,-0.78642 10.93429,-3.72353 10.88698,-4.60506 -0.012,-0.21611 -1.67809,-1.91539 -3.7027,-3.77651 -3.56287,-3.27515 -10.48438,-12.13004 -11.37823,-14.55669 -0.40359,-1.09567 -0.31659,-1.1569 1.09539,-0.77203 0.84354,0.23027 1.5337,0.22173 1.5337,-0.0197 0,-0.24091 -0.98283,-2.03016 -2.18377,-3.97545 -2.73492,-4.43008 -6.99389,-13.622879 -6.66735,-14.390539 0.13469,-0.31658 -0.0443,-0.7366 -0.39783,-0.93368 -1.54599,-0.86195 -0.41195,-1.457071 2.26008,-1.18573 1.59667,0.16209 3.52884,0.0543 4.29361,-0.239647 l 1.39045,-0.534658 -3.63807,-4.53837 c -3.44514,-4.29846 -9.66719,-14.024456 -10.61061,-16.585666 -0.3988,-1.082659 -0.31531,-1.143949 0.99184,-0.726818 1.17973,0.376468 1.34559,0.305903 0.95604,-0.406916 -2.48711,-4.551057 -5.31815,-10.138686 -5.31815,-10.496473 0,-0.24411 1.20986,-0.328761 2.68827,-0.18877 l 2.68827,0.254325 -1.63726,-2.008637 c -2.07019,-2.538614 -4.68671,-7.662105 -5.93085,-11.614371 -0.52866,-1.679373 -1.05583,-3.307977 -1.17169,-3.619392 -0.11871,-0.318918 0.37488,-0.39587 1.13043,-0.176302 l 1.34141,0.389964 -2.36908,-4.454726 c -1.30285,-2.44996 -3.82885,-8.697145 -5.61398,-13.882998 -1.78512,-5.185832 -3.31286,-9.52863 -3.39441,-9.64981 z" /></g></g></svg>
