<?xml version="1.0" encoding="UTF-8" standalone="no"?>
<!-- Created with Inkscape (http://www.inkscape.org/) -->

<svg
   width="210mm"
   height="297mm"
   viewBox="0 0 210 297"
   version="1.1"
   id="svg5"
   xml:space="preserve"
   inkscape:version="1.2.2 (b0a8486541, 2022-12-01)"
   sodipodi:docname="how-it-works-decorate.svg"
   xmlns:inkscape="http://www.inkscape.org/namespaces/inkscape"
   xmlns:sodipodi="http://sodipodi.sourceforge.net/DTD/sodipodi-0.dtd"
   xmlns="http://www.w3.org/2000/svg"
   xmlns:svg="http://www.w3.org/2000/svg"><sodipodi:namedview
     id="namedview7"
     pagecolor="#505050"
     bordercolor="#eeeeee"
     borderopacity="1"
     inkscape:showpageshadow="0"
     inkscape:pageopacity="0"
     inkscape:pagecheckerboard="0"
     inkscape:deskcolor="#505050"
     inkscape:document-units="mm"
     showgrid="false"
     inkscape:zoom="0.69664703"
     inkscape:cx="371.06309"
     inkscape:cy="561.25984"
     inkscape:window-width="1920"
     inkscape:window-height="1011"
     inkscape:window-x="0"
     inkscape:window-y="0"
     inkscape:window-maximized="1"
     inkscape:current-layer="layer1" /><defs
     id="defs2"><style
       id="style647">
      .cls-1 {
        fill: #e06a12;
      }

      .cls-1, .cls-2, .cls-3, .cls-4, .cls-5, .cls-6, .cls-7, .cls-8, .cls-9, .cls-10, .cls-11, .cls-12, .cls-13, .cls-14 {
        stroke-width: 0px;
      }

      .cls-2 {
        fill: #d9c7c4;
      }

      .cls-3 {
        fill: #347e49;
      }

      .cls-4 {
        fill: #68bd5b;
      }

      .cls-5 {
        fill: #fff;
      }

      .cls-6 {
        fill: #351c25;
      }

      .cls-7 {
        fill: #f7aa29;
      }

      .cls-8 {
        fill: #010005;
      }

      .cls-9 {
        fill: #55a556;
      }

      .cls-10 {
        fill: #eaddd8;
      }

      .cls-11 {
        fill: #2d7045;
      }

      .cls-12 {
        fill: #b9351c;
      }

      .cls-13 {
        fill: #3b9049;
      }

      .cls-14 {
        fill: #1e433a;
      }
    </style></defs><g
     inkscape:label="Layer 1"
     inkscape:groupmode="layer"
     id="layer1"><g
       id="g1234"
       transform="matrix(0.26458333,0,0,0.26458333,-30.453238,13.033335)"><g
         id="g1035"><ellipse
           class="cls-2"
           cx="517.08002"
           cy="901.09003"
           rx="283.29001"
           ry="25.75"
           id="ellipse727" /><path
           class="cls-3"
           d="m 523.93,154.39 c -0.02,-0.07 -0.05,-0.15 -0.07,-0.22 0,0 0,0.01 0.01,0.01 0.02,0.07 0.05,0.13 0.06,0.21 z"
           id="path729" /><path
           class="cls-13"
           d="m 497.28,139.53 c -3.63,15.94 -6.85,32.52 -17,45.86 -2.06,2.72 -6.39,1.52 -5,-2.35 5.16,-14.27 12.51,-27.08 18.64,-40.71 h 0.01 c 1.08,-1.02 2.21,-1.96 3.35,-2.8 z"
           id="path731" /><path
           class="cls-4"
           d="m 511.65,121.62 1.34,0.07 c 0.37,0.02 0.69,0.16 0.97,0.39 5.4,4.41 8.93,8.84 10.6,13.27 1.85,4.94 6.11,13.24 0.62,14.61 -3.08,-4.74 -6.22,-9.7 -9.37,-14.88 -2.39,-3.9 -7.01,-8.85 -4.17,-13.47 v 0 z"
           id="path733" /><path
           class="cls-4"
           d="m 497.28,139.53 c -3.63,15.94 -6.85,32.52 -17,45.86 -2.06,2.72 -6.39,1.52 -5,-2.35 5.16,-14.27 12.51,-27.08 18.64,-40.71 h 0.01 c 1.08,-1.02 2.21,-1.96 3.35,-2.8 z"
           id="path735" /><path
           class="cls-9"
           d="m 527.19,173.75 c 0.18,10.24 -8.93,21.9 -16.78,7.73 -3.63,-6.56 -5.87,-13.91 -6.74,-22.05 -0.15,-9.15 0.19,-16.25 3.07,-22.58 5.13,1.99 12.16,10.57 17.11,17.32 0,0 0,0.01 0.01,0.01 0.02,0.07 0.05,0.13 0.06,0.21 0.12,0.38 0.23,0.76 0.34,1.13 0.15,0.45 0.27,0.91 0.39,1.37 0.12,0.46 0.24,0.91 0.35,1.36 0.35,1.39 0.65,2.79 0.9,4.16 0.16,0.85 0.3,1.69 0.44,2.52 0.05,0.28 0.09,0.56 0.12,0.83 0.07,0.48 0.13,0.94 0.19,1.4 0.13,0.98 0.23,1.91 0.3,2.79 0.04,0.3 0.06,0.61 0.07,0.9 0.01,0.09 0.01,0.16 0.01,0.24 0.02,0.27 0.05,0.51 0.06,0.77 0.01,0.29 0.04,0.58 0.04,0.87 0.01,0.15 0.01,0.3 0.02,0.45 0,0.2 0.01,0.39 0.01,0.57 z"
           id="path737" /><g
           id="g919"><path
             class="cls-11"
             d="m 720.42,503.43 c -3.84,-5.55 -8.02,-10.23 -12.55,-14.04 -27.9,-23.5 -50.18,-43.33 -73.65,-68.78 -6.4,-6.94 -12.93,-13.74 -19.62,-20.4 l -14.42,-3.11 -0.54,-0.11 -7.91,-3.47 c -0.37,-0.16 -0.78,0.01 -0.93,0.38 -3.74,9.38 -13.11,15.52 -23.02,14.45 -18.32,-1.96 -35.5,-25.42 -45.53,-39.17 -0.26,-0.35 -0.56,-0.39 -0.89,-0.11 -17.12,14.22 -28.41,11.52 -46.49,0.9 -0.5,-0.3 -1.15,-0.06 -1.33,0.5 -3.41,10.64 -6.64,21.52 -16.53,24.78 -9.4,3.1 -17.05,0.57 -22.95,-7.58 -0.27,-0.38 -0.58,-0.41 -0.94,-0.12 l -3.13,2.55 c 0.65,7.22 4.12,11.82 9.51,14.59 -2.4,51.23 -34.22,67.8 -33.16,68.86 0,0 0.1,11.99 16.64,11.99 3.22,0 8.2,-0.97 14.22,-2.96 0.6,-0.19 1.21,-0.4 1.83,-0.62 25.06,-8.8 65.85,-33.99 75.7,-77.61 0.1,-0.51 0.83,-0.51 0.93,0 0.16,0.8 0.32,1.6 0.49,2.39 4.34,7.26 18.28,29.96 35.09,50.93 1.38,1.71 2.77,3.41 4.17,5.08 13.13,15.67 27.59,29.52 40.45,34.02 13.18,3.63 25.59,-0.73 32.65,-22.8 6.59,7.11 13.86,13.48 21.78,19.15 2.77,1.99 5.63,3.89 8.57,5.7 15.88,9.79 32.4,17.36 49.57,22.71 9.71,-1.76 20.38,-5.97 12.01,-18.09 z M 475.94,399.22 c 4.95,-3.88 10.91,-4.53 13.3,-1.47 2.39,3.06 0.32,8.68 -4.64,12.55 -4.95,3.86 -10.91,4.52 -13.3,1.46 -2.39,-3.06 -0.32,-8.68 4.64,-12.54 z m 22.01,26.87 c -2.05,8.42 -7.11,14.05 -15.19,16.87 -8.82,3.08 -15.08,-4.4 -9.14,-12.58 3.91,-5.37 11.32,-12.08 18.27,-12.82 5.28,-0.57 7.14,4.06 6.06,8.53 z m 126.91,-4.53 c 0.51,0.67 -0.06,1.62 -0.89,1.49 -8.3,-1.33 -14.15,-7.41 -19.4,-13.63 -1.43,-1.8 -2.4,-4.05 -2.95,-6.72 9.13,4.16 16.88,10.43 23.24,18.85 z m 88.74,88.94 c -13.41,3.24 -43.86,-26.46 -52.87,-35.7 -8.9,-9.12 -16.71,-19.14 -23.45,-30.07 -0.1,-0.17 -0.06,-0.38 0.1,-0.5 0.15,-0.12 0.37,-0.1 0.5,0.05 12.03,13.44 25,24.39 40.42,33.8 9.7,5.94 35.42,19.15 35.93,31.6 0.01,0.44 -0.19,0.71 -0.62,0.82 z"
             id="path739" /><path
             class="cls-13"
             d="m 708.42,521.52 c -17.17,-5.35 -33.69,-12.92 -49.57,-22.71 -2.94,-1.82 -5.8,-3.72 -8.57,-5.7 -8.04,-6.15 -15.3,-12.5 -20.65,-18.7 -18.98,-21.95 -26.87,-60.92 -29.46,-77.31 l 14.42,3.11 c 6.69,6.67 13.22,13.47 19.62,20.4 23.47,25.45 45.75,45.28 73.65,68.78 4.53,3.81 8.71,8.5 12.55,14.04 8.37,12.11 -2.29,16.33 -12.01,18.09 z"
             id="path741" /><path
             class="cls-3"
             d="m 606.87,267.94 c -0.15,-0.4 -0.37,-0.46 -0.67,-0.16 -0.35,0.35 -0.69,0.5 -1.05,0.44 -7.32,0.3 -36.66,-36.97 -41.82,-44.11 -2.29,-3.17 -4.18,-6.59 -5.67,-10.26 -11.26,-18.04 -20.39,-37.11 -27.39,-57.21 -0.12,-0.18 -0.24,-0.38 -0.37,-0.57 -0.21,-2.34 -0.28,-6.65 1.5,-9.59 0.67,-1.1 1.6,-2 2.88,-2.52 -2.41,-4.69 -4.77,-9.42 -7.09,-14.17 -4.39,-7.9 -10.45,-11.91 -18.16,-12.02 -7.54,-0.11 -11.1,5.94 -13.31,11.92 -3.35,7.64 -6.85,15.15 -10.48,22.55 -19.03,38.66 -41.94,74.4 -67.36,109.7 -3.84,5.34 -9.95,15.52 -2.66,19.37 l 2.64,-0.58 c 0.39,-0.09 0.74,-0.23 1.07,-0.46 1.22,-0.84 2.44,-1.68 3.66,-2.54 1.12,-0.78 2.24,-1.57 3.36,-2.38 2.8,-2 5.59,-4.05 8.35,-6.13 0.84,-0.63 1.68,-1.27 2.51,-1.91 0.97,-0.76 1.95,-1.5 2.91,-2.25 1.86,-1.46 3.72,-2.95 5.56,-4.44 1.01,-0.83 2.02,-1.66 3.02,-2.49 0.94,-0.78 1.88,-1.57 2.82,-2.36 0.94,-0.79 1.86,-1.58 2.79,-2.39 3.63,-3.12 7.22,-6.33 10.74,-9.6 0.07,-0.07 0.15,-0.13 0.22,-0.21 h 0.01 c 18.64,-21.06 32.55,-50.98 35.76,-58.16 0,-0.01 0.01,-0.01 0.01,-0.02 0.45,-1.01 0.68,-1.57 0.68,-1.57 4.5,30.49 42.29,66.05 46.78,70.18 h 0.01 c 0,0 0.04,0.05 0.05,0.05 0.06,0.05 0.12,0.09 0.2,0.12 0.4,0.29 0.82,0.58 1.24,0.87 0.41,0.29 0.84,0.56 1.26,0.84 0.09,0.06 0.17,0.12 0.26,0.17 0.04,0.02 0.07,0.05 0.11,0.07 0.34,0.24 0.69,0.46 1.05,0.69 0.04,0.02 0.09,0.05 0.12,0.07 0.89,0.58 1.79,1.16 2.71,1.72 1.13,0.69 2.27,1.38 3.41,2.04 0.15,0.1 0.3,0.18 0.45,0.26 1.13,0.66 2.28,1.3 3.44,1.93 14.6,7.91 29.75,14.56 45.44,19.99 2.82,-1.69 4.19,-4.13 4.14,-7.31 -2.38,-2.11 -4.1,-4.62 -5.13,-7.53 z M 480.29,185.39 c -2.06,2.72 -6.39,1.52 -5,-2.35 5.16,-14.27 12.51,-27.08 18.64,-40.71 h 0.01 c 1.08,-1.02 2.21,-1.96 3.35,-2.8 -3.63,15.94 -6.85,32.52 -17,45.86 z m 30.13,-3.91 c -3.63,-6.56 -5.87,-13.91 -6.74,-22.05 -0.15,-9.15 0.19,-16.25 3.07,-22.58 5.13,1.99 12.16,10.57 17.11,17.32 0,0 0,0.01 0.01,0.01 0.02,0.07 0.05,0.13 0.06,0.21 0.12,0.38 0.23,0.76 0.34,1.13 0.15,0.45 0.27,0.91 0.39,1.37 0.12,0.46 0.24,0.91 0.35,1.36 0.35,1.39 0.65,2.79 0.9,4.16 0.16,0.85 0.3,1.69 0.44,2.52 0.05,0.28 0.09,0.56 0.12,0.83 0.07,0.48 0.13,0.94 0.19,1.4 0.13,0.98 0.23,1.91 0.3,2.79 0.04,0.3 0.06,0.61 0.07,0.9 0.01,0.09 0.01,0.16 0.01,0.24 0.02,0.27 0.05,0.51 0.06,0.77 0.01,0.29 0.04,0.58 0.04,0.87 0.01,0.15 0.01,0.3 0.02,0.45 0,0.2 0.01,0.39 0.01,0.57 0.18,10.24 -8.93,21.9 -16.78,7.73 z"
             id="path743" /><path
             class="cls-13"
             d="m 612,275.48 c -2.38,-2.11 -4.1,-4.62 -5.13,-7.53 -0.15,-0.4 -0.37,-0.46 -0.67,-0.16 -0.35,0.35 -0.69,0.5 -1.05,0.44 l 0.23,-0.46 c 0.16,-0.33 0.15,-0.65 -0.06,-0.95 -1.41,-2.1 -1.89,-4.61 -3.33,-6.52 -4.38,-5.84 -9.71,-11.74 -16.04,-17.67 -6.89,-6.47 -14.78,-14.82 -23.68,-25.05 -0.89,-1.02 -2.43,-2.27 -4.61,-3.72 -11.26,-18.04 -20.39,-37.11 -27.39,-57.21 -0.12,-0.18 -0.24,-0.38 -0.37,-0.57 -0.21,-2.34 -0.28,-6.65 1.5,-9.59 0.67,-1.1 1.6,-2 2.88,-2.52 20.93,41.01 44.64,79.81 71.14,116.38 3.55,4.89 5.73,9.93 6.57,15.14 z"
             id="path745" /><path
             class="cls-14"
             d="m 464.66,243.76 c -3.52,3.28 -7.11,6.48 -10.74,9.6 3.63,-3.13 7.22,-6.34 10.74,-9.6 z"
             id="path747" /><path
             class="cls-4"
             d="m 466.56,206.67 c -3.12,7.7 -7.59,15.65 -13.41,23.85 -11.87,16.72 -19.71,26.63 -31.21,37.6 -2.58,2.46 -3.27,2.01 -2.06,-1.35 0.16,-0.43 0.87,-1.58 2.12,-3.45 13.35,-19.87 29.04,-38.32 44.07,-56.94 0.09,-0.11 0.24,-0.13 0.37,-0.06 0.12,0.07 0.17,0.22 0.12,0.35 z"
             id="path749" /><path
             class="cls-4"
             d="m 605.15,268.23 c -7.32,0.3 -36.66,-36.97 -41.82,-44.11 -2.29,-3.17 -4.18,-6.59 -5.67,-10.26 2.18,1.45 3.72,2.69 4.61,3.72 8.9,10.23 16.8,18.57 23.68,25.05 6.33,5.94 11.66,11.83 16.04,17.67 1.44,1.91 1.91,4.42 3.33,6.52 0.21,0.3 0.22,0.62 0.06,0.95 z"
             id="path751" /><path
             class="cls-3"
             d="m 492.75,284.01 c -7.08,-1.01 -12.75,0.37 -17,4.11 -6.68,5.85 -19,20.05 -3.11,24.33 -7.07,12.69 -15.75,24.25 -26.03,34.7 -1.89,1.91 -3.27,4.92 -6.34,6.68 -0.37,0.21 -0.4,0.46 -0.12,0.77 0.39,0.43 0.8,0.6 1.26,0.51 -6.19,2.99 -9.75,8.17 -10.63,15.53 -0.43,0.13 -0.78,0.24 -1.07,0.33 -0.19,-0.06 -0.49,0.02 -0.88,0.24 -0.02,0.01 -0.04,0.01 -0.04,0.01 -10.01,5.74 -20.59,11.03 -31.74,15.89 -4.05,1.77 -10.14,3.47 -18.29,5.13 -10.8,-8.89 -5.9,-19.66 1.6,-28.59 24.06,-28.75 47.61,-56.98 67.92,-88.69 7.64,-4.05 15.05,-8.75 22.24,-14.14 1.15,5.8 4.28,13.15 12.7,14.55 3.55,0.6 6.35,0.76 8.56,0.65 1.01,2.74 1.33,5.41 0.98,8 z"
             id="path753" /><path
             class="cls-3"
             d="m 568.06,340.3 c -11.7,9.53 -20.96,26.56 -37.19,12.26 -15.06,-13.28 -23.17,-28.81 -30.98,-47.9 -0.21,-0.49 -0.38,-0.48 -0.52,0.04 -16.49,46.97 -58.92,62.85 -68.59,65.92 0.88,-7.36 4.44,-12.54 10.63,-15.53 -0.45,0.09 -0.87,-0.09 -1.26,-0.51 -0.28,-0.3 -0.24,-0.56 0.12,-0.77 3.07,-1.76 4.45,-4.77 6.34,-6.68 10.29,-10.44 18.96,-22.01 26.03,-34.7 9.73,-0.32 22.28,-6.08 24.29,-16.44 0.87,-4.4 -0.54,-8.4 -4.18,-11.99 0.35,-2.58 0.04,-5.25 -0.98,-8 6.72,-0.28 7.97,-2.93 7.97,-2.93 0,0 11.62,25.17 25.45,24.69 5.14,-0.18 10.4,-1.33 14.93,-3.47 7.65,-3.6 13.22,-9.99 12.66,-19.15 0.13,-0.39 0.4,-0.5 0.78,-0.33 l 8.62,3.97 c -5.08,-0.63 0.37,12.14 0.37,12.14 0,0 -9.23,-2.22 -11.44,7.96 -2.23,10.16 16.95,41.4 16.95,41.4 z"
             id="path755" /><path
             class="cls-9"
             d="m 445.02,296.13 c 6.14,-6.36 12.65,-12.25 19.54,-17.66 0.6,-0.46 0.94,-0.33 1.05,0.41 0,0.04 -0.05,0.23 -0.15,0.58 -3,10.18 -8.26,18.99 -15.81,26.44 -3,2.96 -11.38,9.76 -15.88,8.04 -1.4,-0.54 -1.97,-2.19 -1.19,-3.47 3.42,-5.62 8.21,-9.95 12.44,-14.35 v 0 z"
             id="path757" /><path
             class="cls-9"
             d="m 496.93,296 c -2.01,10.36 -14.56,16.12 -24.29,16.44 -15.89,-4.28 -3.57,-18.48 3.11,-24.33 4.25,-3.74 9.92,-5.12 17,-4.11 3.64,3.6 5.05,7.59 4.18,11.99 z"
             id="path759" /><path
             class="cls-14"
             d="m 645.28,392.69 c -9.74,7.18 -19.28,7.57 -30.69,7.52 l -14.95,-3.22 -7.91,-3.47 c -0.37,-0.16 -0.78,0.01 -0.93,0.38 -3.74,9.38 -13.11,15.52 -23.02,14.45 -18.32,-1.96 -35.5,-25.42 -45.53,-39.17 -0.26,-0.35 -0.56,-0.39 -0.89,-0.11 -17.12,14.22 -28.41,11.52 -46.49,0.9 -0.5,-0.3 -1.15,-0.06 -1.33,0.5 -3.41,10.64 -6.64,21.52 -16.53,24.78 -9.4,3.1 -17.05,0.57 -22.95,-7.58 -0.27,-0.38 -0.58,-0.41 -0.94,-0.12 l -3.13,2.55 c -6.39,4.3 -12.89,7.18 -19.51,8.64 -11.57,0.56 -22.17,1 -31.73,-6.5 8.15,-1.66 14.25,-3.36 18.29,-5.13 11.15,-4.86 21.73,-10.15 31.74,-15.89 0,0 0.01,0 0.04,-0.01 0.1,-0.02 0.4,-0.11 0.88,-0.24 0.29,-0.09 0.65,-0.19 1.07,-0.33 9.68,-3.07 52.1,-18.95 68.59,-65.92 0.15,-0.51 0.32,-0.52 0.52,-0.04 7.81,19.09 15.92,34.61 30.98,47.9 16.22,14.3 25.48,-2.73 37.19,-12.26 12.59,20.17 29.15,35.11 49.69,44.8 8.06,3.8 17.23,6.33 27.53,7.58 z"
             id="path761" /><path
             class="cls-14"
             d="m 429.7,370.96 c -0.48,0.13 -0.78,0.22 -0.88,0.24 0.39,-0.22 0.68,-0.3 0.88,-0.24 z"
             id="path763" /><path
             class="cls-4"
             d="m 391.79,358.37 c 12.91,-10.48 25.07,-21.54 37.51,-32.54 0.15,-0.12 0.35,-0.13 0.51,-0.01 0.15,0.12 0.18,0.33 0.09,0.5 -11.64,19.84 -25.95,37.56 -42.94,53.16 -3.28,3.01 -7.28,4.56 -10.23,0.29 -0.22,-0.33 -0.29,-0.74 -0.18,-1.13 2.39,-8.03 8.87,-15.1 15.24,-20.27 z"
             id="path765" /><path
             class="cls-4"
             d="m 639.6,382.76 c -12.4,-12.05 -23.35,-25.28 -32.87,-39.67 -0.06,-0.1 -0.05,-0.22 0.04,-0.29 0.09,-0.07 0.21,-0.07 0.29,0 8.06,6.96 16.75,13.1 26.05,18.44 6.35,3.66 15.75,14.47 12.66,22.99 -0.45,1.26 -1.28,1.6 -2.49,1.05 -1.39,-0.63 -2.62,-1.47 -3.68,-2.51 v 0 z"
             id="path767" /><path
             class="cls-11"
             d="m 484.6,410.3 c -4.95,3.86 -10.91,4.52 -13.3,1.46 -2.39,-3.06 -0.32,-8.68 4.64,-12.54 4.95,-3.88 10.91,-4.53 13.3,-1.47 2.39,3.06 0.32,8.68 -4.64,12.55 z"
             id="path769" /><path
             class="cls-11"
             d="m 497.95,426.1 c -2.05,8.42 -7.11,14.05 -15.19,16.87 -8.82,3.08 -15.08,-4.4 -9.14,-12.58 3.91,-5.37 11.32,-12.08 18.27,-12.82 5.28,-0.57 7.14,4.06 6.06,8.53 z"
             id="path771" /><path
             class="cls-3"
             d="m 439.5,404.68 c -2.4,51.23 -34.22,67.8 -33.16,68.86 -1.61,1.01 -3.13,1.85 -4.58,2.55 -2.21,1.06 -3.75,1.85 -4.64,2.38 -25.24,15.14 -50.74,28.35 -76.5,39.62 -2.99,1.3 -6.72,1.94 -11.19,1.89 -10.24,-2.58 -8.85,-12.13 -3.41,-18.59 6.31,-7.48 12.76,-13.85 19.33,-19.07 31.9,-25.4 60.28,-53.26 85.15,-83.59 6.62,-1.46 13.13,-4.34 19.51,-8.64 0.65,7.22 4.12,11.82 9.51,14.59 z"
             id="path773" /><path
             class="cls-13"
             d="m 484.6,410.3 c -4.95,3.86 -10.91,4.52 -13.3,1.46 -2.39,-3.06 -0.32,-8.68 4.64,-12.54 4.95,-3.88 10.91,-4.53 13.3,-1.47 2.39,3.06 0.32,8.68 -4.64,12.55 z"
             id="path775" /><path
             class="cls-3"
             d="m 714.23,509.68 c 0.01,0.44 -0.19,0.71 -0.62,0.82 -13.41,3.24 -43.86,-26.46 -52.87,-35.7 -8.9,-9.12 -16.71,-19.14 -23.45,-30.07 -0.1,-0.17 -0.06,-0.38 0.1,-0.5 0.15,-0.12 0.37,-0.1 0.5,0.05 12.03,13.44 25,24.39 40.42,33.8 9.7,5.94 35.42,19.15 35.93,31.6 z"
             id="path777" /><path
             class="cls-9"
             d="m 422.88,402.31 c 2.24,8.31 -8.41,13.18 -14.94,13.61 -0.5,0.04 -0.57,-0.12 -0.21,-0.46 l 14.47,-13.35 c 0.33,-0.3 0.56,-0.24 0.68,0.19 v 0 z"
             id="path779" /><path
             class="cls-9"
             d="m 623.98,423.05 c -8.3,-1.33 -14.15,-7.41 -19.4,-13.63 -1.43,-1.8 -2.4,-4.05 -2.95,-6.72 9.13,4.16 16.88,10.43 23.24,18.85 0.51,0.67 -0.06,1.62 -0.89,1.49 z"
             id="path781" /><path
             class="cls-14"
             d="m 516.14,406.73 c -0.93,-1.54 -1.41,-2.39 -1.41,-2.39 0.1,-0.51 0.83,-0.51 0.93,0 0.16,0.8 0.32,1.6 0.49,2.39 z"
             id="path783" /><path
             class="cls-9"
             d="m 419.17,427.81 c -3.29,1.61 -6.91,1.91 -10.86,0.93 -1.46,-0.37 -2.23,-1.99 -1.58,-3.35 2.28,-4.81 15,-11.76 20.18,-11.48 1.58,0.09 2.56,1.78 1.84,3.21 l -2.55,5 c -0.26,0.49 -0.1,0.71 0.45,0.67 15.04,-1.28 -3.08,35.19 -16.56,24.92 -7.13,-5.44 4.58,-16.76 9.34,-19.53 0.1,-0.06 0.13,-0.18 0.06,-0.28 -0.07,-0.1 -0.21,-0.13 -0.32,-0.09 z"
             id="path785" /><path
             class="cls-13"
             d="m 497.95,426.1 c -2.05,8.42 -7.11,14.05 -15.19,16.87 -8.82,3.08 -15.08,-4.4 -9.14,-12.58 3.91,-5.37 11.32,-12.08 18.27,-12.82 5.28,-0.57 7.14,4.06 6.06,8.53 z"
             id="path787" /><path
             class="cls-9"
             d="m 607.89,431.47 c -5.36,0.07 -15.05,-3.28 -13.83,-10.19 0.76,-4.29 3.86,-8.02 8.64,-6.35 6.65,1.69 15.99,12.8 5.19,16.54 z"
             id="path789" /><path
             class="cls-9"
             d="m 606.88,462.96 c -5.74,-4.51 -10.14,-11.38 -8.7,-18.79 0.93,-4.81 3.92,-6.53 8.98,-5.16 6.17,2.35 10.76,6.31 13.77,11.86 3.67,10.25 -4.08,19.92 -14.05,12.09 z"
             id="path791" /><path
             class="cls-4"
             d="m 317.45,509.23 c -5.13,1.72 -8.21,-2.16 -4.89,-6.72 4.84,-6.64 10.31,-11.65 16.44,-15.03 25.85,-14.25 44.25,-24.53 62.2,-43.96 0.17,-0.18 0.35,-0.18 0.55,-0.02 0.1,0.09 0.16,0.16 0.17,0.24 0.01,0.02 0,0.05 -0.01,0.07 -14.88,23.1 -33.86,42.09 -56.94,56.99 -5.47,3.53 -11.31,6.34 -17.51,8.42 v 0 z"
             id="path793" /><path
             class="cls-4"
             d="m 714.23,509.68 c 0.01,0.44 -0.19,0.71 -0.62,0.82 -13.41,3.24 -43.86,-26.46 -52.87,-35.7 -8.9,-9.12 -16.71,-19.14 -23.45,-30.07 -0.1,-0.17 -0.06,-0.38 0.1,-0.5 0.15,-0.12 0.37,-0.1 0.5,0.05 12.03,13.44 25,24.39 40.42,33.8 9.7,5.94 35.42,19.15 35.93,31.6 z"
             id="path795" /><path
             class="cls-11"
             d="m 623.64,528.38 c -2.8,7.18 -12.1,13.78 -19.48,8.36 -11.27,-8.28 13.66,-20.65 19.42,-9.52 0.18,0.37 0.21,0.78 0.06,1.16 z"
             id="path797" /><path
             class="cls-11"
             d="m 639.02,548.08 c -6.62,16.67 -26.05,-4.31 -7.98,-18.07 0.76,-0.59 1.82,-0.57 2.57,0.02 6.4,5.01 8.2,11.02 5.41,18.05 z"
             id="path799" /><path
             class="cls-11"
             d="m 725.81,591.34 c -3.57,-0.61 -7.12,-1.78 -10.66,-3.5 -36.41,-17.67 -65.18,-38.65 -85.51,-74.58 -0.22,-0.39 -0.11,-0.87 0.24,-1.13 0.35,-0.26 0.85,-0.21 1.15,0.12 17.22,19.07 36.92,38.14 57.05,53.01 8.71,6.44 24.02,18.46 37.9,25.59 1.01,0.52 0.95,0.68 -0.17,0.49 z"
             id="path801" /><path
             class="cls-3"
             d="m 416.81,517.48 c -4.39,2.77 -10.66,9.74 -9.29,15.42 0.28,1.17 0.55,2.32 0.8,3.45 l -5.01,4.06 c -3.55,-8 -9.9,-9.38 -14.11,-1.39 -1.67,3.16 -2.52,6.57 -2.56,10.24 -4.78,3.67 -8.07,8.54 -9.86,14.63 -13.03,22.01 -32.3,35.11 -57.8,39.29 -8.42,1.38 -17.19,2.57 -26.31,3.58 -3.73,-2.56 -5.01,-5.76 -3.83,-9.6 0.98,-3.18 5.39,-7.74 7.68,-9.57 29.97,-23.86 53.31,-43.45 75.89,-70.89 l 26.02,-15.8 c 0.91,-0.55 2.1,-0.34 2.78,0.49 4.33,5.37 9.74,9.49 16.23,12.37 -1.12,1.35 -1.34,2.58 -0.65,3.72 z"
             id="path803" /><path
             class="cls-3"
             d="m 485.92,508.82 -2.36,0.35 c 0.22,-1.04 1.56,-1.35 2.22,-0.52 0.05,0.06 0.1,0.11 0.15,0.17 z"
             id="path805" /><path
             class="cls-3"
             d="m 552.57,561.92 c -3.38,14.52 -13.81,35.48 -32.74,30.95 -14.8,-3.55 -26.56,-19.12 -31.87,-32.52 -5.28,-13.32 -7.39,-27.4 -6.3,-42.23 l 1.9,-8.95 c 0,0 44.4,80.81 69.01,52.75 z"
             id="path807" /><path
             class="cls-4"
             d="m 389.65,518.01 c 3.17,-3.51 5.79,-6.13 7.86,-7.87 0.67,-0.56 0.82,-0.45 0.44,0.34 -19.23,40.27 -58.48,68.97 -100.09,82.29 -0.13,0.05 -0.28,-0.02 -0.34,-0.15 -0.06,-0.13 -0.02,-0.29 0.1,-0.37 34.98,-22.55 65.3,-44.69 92.03,-74.25 v 0 z"
             id="path809" /><path
             class="cls-9"
             d="m 725.81,591.34 c -3.57,-0.61 -7.12,-1.78 -10.66,-3.5 -36.41,-17.67 -65.18,-38.65 -85.51,-74.58 -0.22,-0.39 -0.11,-0.87 0.24,-1.13 0.35,-0.26 0.85,-0.21 1.15,0.12 17.22,19.07 36.92,38.14 57.05,53.01 8.71,6.44 24.02,18.46 37.9,25.59 1.01,0.52 0.95,0.68 -0.17,0.49 z"
             id="path811" /><path
             class="cls-9"
             d="m 426.75,535.56 c -4.69,7.7 -10.84,7.97 -18.43,0.79 -0.26,-1.13 -0.52,-2.28 -0.8,-3.45 -1.38,-5.68 4.9,-12.65 9.29,-15.42 6,2.72 14.16,11.16 9.95,18.07 z"
             id="path813" /><path
             class="cls-14"
             d="m 731.95,606.03 c -13.76,8.81 -32.9,8.04 -47.57,6.67 -8.41,-1.95 -16.6,-5 -24.58,-9.14 -0.37,-0.19 -0.63,-0.1 -0.79,0.28 l -2.16,5.03 c -26.02,43.78 -67.34,-0.3 -85.29,-23.18 -0.23,-0.29 -0.69,-0.28 -0.9,0.04 -12.07,17.94 -33.46,35.02 -55.98,26.8 -18.14,-6.61 -32.85,-28.14 -40.87,-44.08 -0.26,-0.5 -0.94,-0.61 -1.33,-0.19 -14.27,15.03 -53.41,49.11 -75.98,38.45 -6.15,-2.91 -14.42,-8.09 -24.79,-15.54 -0.35,-0.26 -0.68,-0.22 -0.96,0.11 l -7.34,8.56 c -3.25,3.32 -6.19,5.59 -8.8,6.85 -4.38,2.08 -9.24,4.02 -14.6,5.81 -13,1.21 -35.81,2.34 -47.34,-5.73 9.13,-1.01 17.89,-2.21 26.31,-3.58 25.5,-4.18 44.77,-17.28 57.8,-39.29 16.84,24.25 34.26,19.64 56.61,6.51 19.55,-11.48 36.91,-32.62 48.26,-52.27 -1.08,14.83 1.02,28.91 6.3,42.23 5.31,13.39 17.08,28.97 31.87,32.52 18.93,4.53 29.36,-16.43 32.74,-30.95 1.52,-6.55 2.18,-13.63 1.97,-21.23 -0.07,-2.55 0.45,-2.67 1.58,-0.39 10.2,20.72 29.25,35.21 52.37,36.05 l 0.55,4.34 c 5.08,24.79 48.03,10.08 31.03,-16.71 2.8,2.69 4.75,6.13 5.86,10.32 0.46,1.74 1.17,3.14 2.12,4.19 12.79,14.09 35.04,22.96 52.79,25.72 8.14,1.26 18.51,1.86 31.1,1.82 z"
             id="path815" /><path
             class="cls-13"
             d="m 623.64,528.38 c -2.8,7.18 -12.1,13.78 -19.48,8.36 -11.27,-8.28 13.66,-20.65 19.42,-9.52 0.18,0.37 0.21,0.78 0.06,1.16 z"
             id="path817" /><path
             class="cls-13"
             d="m 639.02,548.08 c -6.62,16.67 -26.05,-4.31 -7.98,-18.07 0.76,-0.59 1.82,-0.57 2.57,0.02 6.4,5.01 8.2,11.02 5.41,18.05 z"
             id="path819" /><path
             class="cls-9"
             d="m 386.64,549.25 c 0.04,-3.67 0.89,-7.08 2.56,-10.24 4.22,-8 10.57,-6.61 14.11,1.39 8.35,15.37 -13.13,26.11 -16.67,8.85 z"
             id="path821" /><path
             class="cls-11"
             d="m 528,628.11 c -0.57,5.87 -8.9,9.86 -18.57,8.91 -9.69,-0.95 -17.08,-6.48 -16.5,-12.35 0.57,-5.87 8.9,-9.86 18.59,-8.9 9.68,0.94 17.06,6.47 16.49,12.33 z"
             id="path823" /><path
             class="cls-11"
             d="m 530.24,658.05 c -7.45,1.23 -15.92,-0.74 -21.16,-6.44 -4.01,-4.35 -0.4,-8.71 4.63,-9.6 6.79,-1.19 16.22,-1.45 22,2.91 7.5,5.67 1.12,12.04 -5.47,13.13 z"
             id="path825" /><path
             class="cls-3"
             d="m 324.69,700.91 c -2.71,1.4 -5.91,2.63 -9.6,3.69 -23.86,6.86 -47.51,13.42 -72.3,16 -2.04,0.21 -5.19,0.07 -9.48,-0.43 -20.5,-10.18 10.19,-31.2 18.37,-36.66 31.74,-21.22 62.35,-42.45 88.34,-71.03 5.36,-1.79 10.23,-3.73 14.6,-5.81 2.61,-1.26 5.55,-3.53 8.8,-6.85 9.75,44.34 -38.72,101.09 -38.72,101.09 z"
             id="path827" /><path
             class="cls-3"
             d="m 791.55,708.16 c -0.27,1.57 -1.76,2.64 -3.34,2.39 -3.45,-0.55 -6.84,-1.66 -10.15,-3.33 -34.31,-17.28 -67.22,-39.54 -93.35,-67.94 -3.91,-4.25 -7.51,-8.68 -10.8,-13.29 -0.11,-0.16 -0.09,-0.37 0.05,-0.5 0.15,-0.12 0.35,-0.12 0.5,0 24.03,21.69 50.28,40.33 78.73,55.89 7.19,3.94 40.01,16.98 38.36,26.77 z"
             id="path829" /><path
             class="cls-14"
             d="m 790.71,720.2 c -24.83,11.96 -59.25,7.11 -85.54,1.73 -8.78,-2.99 -17.45,-7.09 -26.03,-12.3 -0.29,-0.18 -0.67,-0.13 -0.91,0.11 -12.82,12.41 -27.92,25.75 -47.83,18.67 -23.45,-8.32 -46.4,-30.56 -62.11,-49.25 -0.27,-0.32 -0.76,-0.34 -1.05,-0.06 -14.2,13.53 -30.59,26.63 -51.74,21.54 -25.61,-6.18 -43.44,-24.45 -59.84,-43.88 -0.3,-0.35 -0.6,-0.37 -0.9,-0.01 -14.35,16.86 -25.58,29.3 -33.74,37.36 -13.13,12.99 -25.78,24.49 -44.28,25.92 -10.93,0.85 -20.71,-2.78 -28.67,-10.02 -0.5,-0.45 -1.23,-0.52 -1.82,-0.17 -8.99,5.39 -18.29,9.54 -27.91,12.46 -26.61,4.42 -62.23,10.62 -85.05,-2.12 4.29,0.5 7.45,0.63 9.48,0.43 24.79,-2.58 48.44,-9.14 72.3,-16 3.69,-1.06 6.9,-2.29 9.6,-3.69 9.68,-2.86 18.37,-10.01 25.29,-16.2 0.34,-0.3 0.63,-0.27 0.88,0.12 11.47,18.09 35.41,4.41 48.12,-4.02 26.09,-17.32 46.88,-39.59 62.34,-66.8 0.26,-0.45 0.39,-0.41 0.41,0.1 0.87,17.51 7.09,32.77 18.68,45.77 34.75,38.93 74.57,12.07 83.7,-29.8 0.06,-0.26 0.41,-0.26 0.48,0 7.87,33.13 33.96,64.94 69.07,71.21 18.34,3.28 33.54,2.23 44.19,-14.25 11.64,9.71 25.8,16.98 42.47,21.78 24.61,7.09 48.07,10.88 70.39,11.38 z"
             id="path831" /><path
             class="cls-13"
             d="m 528,628.11 c -0.57,5.87 -8.9,9.86 -18.57,8.91 -9.69,-0.95 -17.08,-6.48 -16.5,-12.35 0.57,-5.87 8.9,-9.86 18.59,-8.9 9.68,0.94 17.06,6.47 16.49,12.33 z"
             id="path833" /><path
             class="cls-4"
             d="m 348.71,625.64 c 1.01,-0.95 1.16,-0.83 0.44,0.35 -3.16,5.28 -6.96,10.37 -11.41,15.31 -22.35,24.84 -50.41,44.27 -80.1,59.27 -4.92,2.49 -20.38,11.36 -25.28,8.85 -0.4,-0.21 -0.55,-0.52 -0.41,-0.96 2.16,-7.28 10.73,-12.61 17.19,-15.7 36.54,-17.42 70.15,-39.25 99.58,-67.12 v 0 z"
             id="path835" /><path
             class="cls-4"
             d="m 791.55,708.16 c -0.27,1.57 -1.76,2.64 -3.34,2.39 -3.45,-0.55 -6.84,-1.66 -10.15,-3.33 -34.31,-17.28 -67.22,-39.54 -93.35,-67.94 -3.91,-4.25 -7.51,-8.68 -10.8,-13.29 -0.11,-0.16 -0.09,-0.37 0.05,-0.5 0.15,-0.12 0.35,-0.12 0.5,0 24.03,21.69 50.28,40.33 78.73,55.89 7.19,3.94 40.01,16.98 38.36,26.77 z"
             id="path837" /><path
             class="cls-13"
             d="m 530.24,658.05 c -7.45,1.23 -15.92,-0.74 -21.16,-6.44 -4.01,-4.35 -0.4,-8.71 4.63,-9.6 6.79,-1.19 16.22,-1.45 22,2.91 7.5,5.67 1.12,12.04 -5.47,13.13 z"
             id="path839" /><path
             class="cls-11"
             d="m 311.58,740.5 c -2.04,-4.41 6.12,-5.36 8.54,-5.52 0.34,-0.02 0.65,0.18 0.76,0.5 2.16,6.68 -7.62,8.65 -9.3,5.02 z"
             id="path841" /><path
             class="cls-11"
             d="m 321.53,763.09 c -1.21,6.97 -6.5,11.87 -11.83,10.96 -5.33,-0.93 -8.68,-7.32 -7.47,-14.28 1.21,-6.98 6.5,-11.88 11.83,-10.96 5.33,0.91 8.68,7.31 7.47,14.28 z"
             id="path843" /><path
             class="cls-11"
             d="m 341.2,755.31 c -8.98,-0.21 -21.01,-7.19 -15.15,-18.25 4.63,-8.73 18.7,-2.71 23,2.41 6.48,7.74 1.91,16.06 -7.85,15.83 z"
             id="path845" /><path
             class="cls-11"
             d="m 452.31,728.19 c -10.9,7.5 -29.45,12.24 -41.94,4.47 -8.21,-5.09 -1.61,-12.91 4.9,-15.67 7.62,-3.25 39.46,-12.53 43.91,-1.41 1.82,4.52 -3.78,10.48 -6.87,12.61 z"
             id="path847" /><path
             class="cls-11"
             d="m 474.91,694.72 c -4.23,12.22 -45.8,16.03 -44.58,0.93 1.12,-14 41.34,-13.15 44.61,-1.97 0.11,0.35 0.1,0.69 -0.02,1.05 z"
             id="path849" /><path
             class="cls-11"
             d="m 597.4,761.84 c -5.91,-1.48 -10.24,-5.14 -14.75,-9.41 -4.58,-4.33 -8.87,-13.72 1.85,-13.94 8.7,-0.18 21.32,3.97 25.27,12.61 3.81,8.36 -5.75,12.4 -12.37,10.74 z"
             id="path851" /><path
             class="cls-11"
             d="m 673,759.12 c -6.56,5.78 -14.94,6.97 -18.75,2.67 -3.79,-4.31 -1.56,-12.49 5,-18.26 6.56,-5.79 14.94,-6.98 18.75,-2.67 3.79,4.3 1.56,12.48 -5,18.26 z"
             id="path853" /><path
             class="cls-11"
             d="m 699.24,781.44 c -6.46,1.45 -13.31,-4.52 -15.3,-13.33 -1.99,-8.82 1.65,-17.16 8.11,-18.61 6.46,-1.46 13.31,4.51 15.3,13.33 1.99,8.81 -1.65,17.15 -8.11,18.61 z"
             id="path855" /><path
             class="cls-11"
             d="m 736.4,759.99 c -16.58,-0.78 -34.28,-12.12 -45.66,-23.6 -2.3,-2.32 -4.38,-3.64 -5.06,-7.12 -0.09,-0.45 0.23,-0.87 0.69,-0.91 4,-0.39 14.32,6.57 15.91,7.64 11.38,7.74 22.85,15.43 34.41,23.07 0.43,0.28 0.21,0.94 -0.29,0.91 z"
             id="path857" /><path
             class="cls-13"
             d="m 474.91,694.72 c -4.23,12.22 -45.8,16.03 -44.58,0.93 1.12,-14 41.34,-13.15 44.61,-1.97 0.11,0.35 0.1,0.69 -0.02,1.05 z"
             id="path859" /><path
             class="cls-13"
             d="m 452.31,728.19 c -10.9,7.5 -29.45,12.24 -41.94,4.47 -8.21,-5.09 -1.61,-12.91 4.9,-15.67 7.62,-3.25 39.46,-12.53 43.91,-1.41 1.82,4.52 -3.78,10.48 -6.87,12.61 z"
             id="path861" /><path
             class="cls-13"
             d="m 736.4,759.99 c -16.58,-0.78 -34.28,-12.12 -45.66,-23.6 -2.3,-2.32 -4.38,-3.64 -5.06,-7.12 -0.09,-0.45 0.23,-0.87 0.69,-0.91 4,-0.39 14.32,6.57 15.91,7.64 11.38,7.74 22.85,15.43 34.41,23.07 0.43,0.28 0.21,0.94 -0.29,0.91 z"
             id="path863" /><path
             class="cls-13"
             d="m 341.2,755.31 c -8.98,-0.21 -21.01,-7.19 -15.15,-18.25 4.63,-8.73 18.7,-2.71 23,2.41 6.48,7.74 1.91,16.06 -7.85,15.83 z"
             id="path865" /><path
             class="cls-13"
             d="m 311.58,740.5 c -2.04,-4.41 6.12,-5.36 8.54,-5.52 0.34,-0.02 0.65,0.18 0.76,0.5 2.16,6.68 -7.62,8.65 -9.3,5.02 z"
             id="path867" /><path
             class="cls-13"
             d="m 673,759.12 c -6.56,5.78 -14.94,6.97 -18.75,2.67 -3.79,-4.31 -1.56,-12.49 5,-18.26 6.56,-5.79 14.94,-6.98 18.75,-2.67 3.79,4.3 1.56,12.48 -5,18.26 z"
             id="path869" /><path
             class="cls-13"
             d="m 597.4,761.84 c -5.91,-1.48 -10.24,-5.14 -14.75,-9.41 -4.58,-4.33 -8.87,-13.72 1.85,-13.94 8.7,-0.18 21.32,3.97 25.27,12.61 3.81,8.36 -5.75,12.4 -12.37,10.74 z"
             id="path871" /><path
             class="cls-13"
             d="m 321.53,763.09 c -1.21,6.97 -6.5,11.87 -11.83,10.96 -5.33,-0.93 -8.68,-7.32 -7.47,-14.28 1.21,-6.98 6.5,-11.88 11.83,-10.96 5.33,0.91 8.68,7.31 7.47,14.28 z"
             id="path873" /><path
             class="cls-13"
             d="m 699.24,781.44 c -6.46,1.45 -13.31,-4.52 -15.3,-13.33 -1.99,-8.82 1.65,-17.16 8.11,-18.61 6.46,-1.46 13.31,4.51 15.3,13.33 1.99,8.81 -1.65,17.15 -8.11,18.61 z"
             id="path875" /><path
             class="cls-11"
             d="M 807.75,778.54 C 792.2,772.93 776.71,766.75 761.26,760 c -20.51,-9.51 -39.21,-22.19 -56.09,-38.06 -8.78,-2.99 -17.45,-7.09 -26.03,-12.3 -0.29,-0.18 -0.67,-0.13 -0.91,0.11 -12.82,12.41 -27.92,25.75 -47.83,18.67 -23.45,-8.32 -46.4,-30.56 -62.11,-49.25 -0.27,-0.32 -0.76,-0.34 -1.05,-0.06 -14.2,13.53 -30.59,26.63 -51.74,21.54 -25.61,-6.18 -43.44,-24.45 -59.84,-43.88 -0.3,-0.35 -0.6,-0.37 -0.9,-0.01 -14.35,16.86 -25.58,29.3 -33.74,37.36 -13.13,12.99 -25.78,24.49 -44.28,25.92 -10.93,0.85 -20.71,-2.78 -28.67,-10.02 -0.5,-0.45 -1.23,-0.52 -1.82,-0.17 -8.99,5.39 -18.29,9.54 -27.91,12.46 -20.61,19.34 -43.9,34 -69.9,44 -10.37,3.99 -20.74,7.92 -31.13,11.83 -10.25,3.84 -19.67,15.31 -5.3,22.45 0,0 103.26,17.28 203.65,-24.86 31.01,-13 61.73,-31.69 89.07,-58.3 0.28,-0.46 0.55,-0.93 0.82,-1.39 0.19,-0.35 0.4,-0.35 0.63,-0.02 45.27,65.77 131.78,84.49 205.99,87.13 23.19,0.83 50.18,0.06 80.95,-2.29 l 20.65,-1.91 c 11.52,-7.67 2.86,-17.2 -6.03,-20.4 z M 320.12,734.98 c 0.34,-0.02 0.65,0.18 0.76,0.5 2.16,6.68 -7.62,8.65 -9.3,5.02 -2.04,-4.41 6.12,-5.36 8.54,-5.52 z m 1.41,28.12 c -1.21,6.97 -6.5,11.87 -11.83,10.96 -5.33,-0.93 -8.68,-7.32 -7.47,-14.28 1.21,-6.98 6.5,-11.88 11.83,-10.96 5.33,0.91 8.68,7.31 7.47,14.28 z m 19.67,-7.79 c -8.98,-0.21 -21.01,-7.19 -15.15,-18.25 4.63,-8.73 18.7,-2.71 23,2.41 6.48,7.74 1.91,16.06 -7.85,15.83 z m 111.11,-27.12 c -10.9,7.5 -29.45,12.24 -41.94,4.47 -8.21,-5.09 -1.61,-12.91 4.9,-15.67 7.62,-3.25 39.46,-12.53 43.91,-1.41 1.82,4.52 -3.78,10.48 -6.87,12.61 z m 22.6,-33.47 c -4.23,12.22 -45.8,16.03 -44.58,0.93 1.12,-14 41.34,-13.15 44.61,-1.97 0.11,0.35 0.1,0.69 -0.02,1.05 z m 122.49,67.12 c -5.91,-1.48 -10.24,-5.14 -14.75,-9.41 -4.58,-4.33 -8.87,-13.72 1.85,-13.94 8.7,-0.18 21.32,3.97 25.27,12.61 3.81,8.36 -5.75,12.4 -12.37,10.74 z m 75.6,-2.72 c -6.56,5.78 -14.94,6.97 -18.75,2.67 -3.79,-4.31 -1.56,-12.49 5,-18.26 6.56,-5.79 14.94,-6.98 18.75,-2.67 3.79,4.3 1.56,12.48 -5,18.26 z m 26.24,22.32 c -6.46,1.45 -13.31,-4.52 -15.3,-13.33 -1.99,-8.82 1.65,-17.16 8.11,-18.61 6.46,-1.46 13.31,4.51 15.3,13.33 1.99,8.81 -1.65,17.15 -8.11,18.61 z m 37.16,-21.45 c -16.58,-0.78 -34.28,-12.12 -45.66,-23.6 -2.3,-2.32 -4.38,-3.64 -5.06,-7.12 -0.09,-0.45 0.23,-0.87 0.69,-0.91 4,-0.39 14.32,6.57 15.91,7.64 11.38,7.74 22.85,15.43 34.41,23.07 0.43,0.28 0.21,0.94 -0.29,0.91 z m 26.08,15.78 c -4.47,0.15 -8.54,-1.21 -12.22,-4.05 -1.02,-0.79 -1.17,-2.28 -0.33,-3.25 2.25,-2.58 5.4,-3.33 9.46,-2.23 l 12.98,4.73 c 0.98,0.35 1.22,1.61 0.46,2.3 -2.51,2.3 -5.96,3.13 -10.35,2.5 z m 51.08,14.09 c -4.69,1.54 -11.24,0.51 -18.76,-1.15 -8.56,-1.11 -16.54,-3.89 -23.96,-8.32 12.48,-2.29 33.66,-0.73 43.15,7.18 0.8,0.67 0.56,1.96 -0.43,2.29 z"
             id="path877" /><path
             class="cls-14"
             d="m 506.19,716.01 c -0.48,0.48 -0.96,0.95 -1.45,1.41 0.28,-0.46 0.55,-0.93 0.82,-1.39 0.19,-0.35 0.4,-0.35 0.63,-0.02 z"
             id="path879" /><path
             class="cls-11"
             d="m 571.35,830.91 c -7.61,2.02 -15.33,3.28 -23.19,3.78 -23.67,1.6 -47.3,1.63 -70.91,0.13 -9.04,-0.58 -23.83,-1.44 -30.96,-7.29 0.72,-0.99 1.56,-0.87 2.5,0.38 0.43,0.55 0.71,0.49 0.84,-0.2 0.1,-0.46 -0.1,-0.84 -0.6,-1.12 -0.88,-0.5 -0.84,-0.69 0.1,-0.59 12.09,1.32 22.95,-11.9 27.63,-21.4 0.33,-0.68 -0.32,-1.43 -1.04,-1.19 -10.98,3.57 -24.96,9.1 -29.37,20.55 2.36,-10.92 13.15,-26.13 17.6,-33.18 0.22,-0.35 0.22,-0.72 0.01,-1.07 l -0.21,-0.33 c 17.39,-8.41 33.7,-18.57 48.91,-30.49 0.26,-0.19 0.62,-0.19 0.88,0 13.05,9.91 26.79,18.85 41.23,26.83 2.4,1.33 4.02,2.54 4.88,3.63 7.4,11.26 13.44,21.99 18.15,32.16 2.69,5.84 -1.46,8.07 -6.45,9.4 z"
             id="path881" /><path
             class="cls-9"
             d="m 250.9,775.86 c -0.33,-0.06 -0.44,-0.46 -0.21,-0.69 6.8,-6.69 21.65,-11.1 30.74,-13.75 0.79,-0.23 1,0.02 0.62,0.76 -3.12,6.18 -17.33,12.1 -22.94,13.94 -2.8,0.91 -5.4,0.3 -8.21,-0.26 z"
             id="path883" /><path
             class="cls-9"
             d="m 772.83,773.27 c -2.51,2.3 -5.96,3.13 -10.35,2.5 -4.47,0.15 -8.54,-1.21 -12.22,-4.05 -1.02,-0.79 -1.17,-2.28 -0.33,-3.25 2.25,-2.58 5.4,-3.33 9.46,-2.23 l 12.98,4.73 c 0.98,0.35 1.22,1.61 0.46,2.3 z"
             id="path885" /><path
             class="cls-9"
             d="m 210.59,790.09 c -0.67,-0.13 -0.94,-0.96 -0.46,-1.45 1.84,-1.91 4.06,-3.34 6.67,-4.28 11.71,-4.22 27.62,-8.9 38.1,-5.36 0.49,0.16 0.49,0.34 0.01,0.54 -12.4,5.13 -32.47,12.8 -44.32,10.55 z"
             id="path887" /><path
             class="cls-9"
             d="m 813.56,789.86 c -4.69,1.54 -11.24,0.51 -18.76,-1.15 -8.56,-1.11 -16.54,-3.89 -23.96,-8.32 12.48,-2.29 33.66,-0.73 43.15,7.18 0.8,0.67 0.56,1.96 -0.43,2.29 z"
             id="path889" /><path
             class="cls-13"
             d="m 446.29,827.54 c -0.8,-2.21 -0.78,-3.4 0.06,-3.57 4.41,-11.44 18.39,-16.98 29.37,-20.55 0.72,-0.23 1.37,0.51 1.04,1.19 -4.68,9.51 -15.54,22.72 -27.63,21.4 -0.94,-0.11 -0.98,0.09 -0.1,0.59 0.5,0.28 0.69,0.66 0.6,1.12 -0.13,0.68 -0.41,0.74 -0.84,0.2 -0.94,-1.24 -1.78,-1.37 -2.5,-0.38 z"
             id="path891" /><path
             class="cls-13"
             d="m 575.71,827.62 c -11.29,-2.17 -24.05,-11.15 -28.67,-21.23 -0.23,-0.52 -0.07,-0.73 0.5,-0.63 9.79,1.65 18.54,5.47 26.27,11.48 2.73,2.13 5.17,6.9 2.88,9.99 -0.24,0.33 -0.57,0.46 -0.97,0.39 v 0 z"
             id="path893" /><path
             class="cls-6"
             d="m 548.16,834.69 3.39,34.42 1.32,17.45 c 0.04,0.45 0.29,0.71 0.74,0.74 l 8.56,0.68 c 10.25,0.52 20.38,1.66 30.41,3.4 3.5,0.6 6.65,1.77 9.49,3.51 0.62,0.39 0.57,1.32 -0.09,1.63 -2.28,1.13 -4.7,1.95 -7.25,2.45 -12.05,2.38 -24.22,3.84 -36.49,4.38 -10.79,0.46 -139.49,3.74 -135.68,-8.59 0.13,-0.4 0.44,-0.72 0.83,-0.85 11.15,-4.08 23.83,-4.88 35.43,-6.04 l 12.19,-0.72 c 0.38,-0.02 0.69,-0.33 0.74,-0.71 l 2.07,-17.59 3.42,-34.03 c 23.61,1.5 47.24,1.46 70.91,-0.13 v 0 z"
             id="path895" /><path
             class="cls-14"
             d="m 813.78,798.94 c -4.49,3 -9.46,5.45 -14.92,7.34 -70.24,24.35 -148.06,17.94 -216.84,-8.29 -7.07,-2.69 -14.53,-5.58 -22.38,-8.64 -0.85,-1.1 -2.47,-2.3 -4.88,-3.63 -14.44,-7.97 -28.18,-16.92 -41.23,-26.83 -0.26,-0.19 -0.62,-0.19 -0.88,0 -15.21,11.92 -31.52,22.08 -48.91,30.49 -63.47,27.87 -134.21,39.61 -202.72,26.98 -15.09,-2.77 -29.7,-7.11 -43.84,-13.02 -1.86,-0.78 -3.6,-1.71 -5.17,-2.77 0,0 103.26,17.28 203.65,-24.86 31.01,-13 61.73,-31.69 89.07,-58.3 0.49,-0.46 0.98,-0.94 1.45,-1.41 45.27,65.77 131.78,84.49 205.99,87.13 23.19,0.83 50.18,0.06 80.95,-2.29 l 20.65,-1.91 z"
             id="path897" /><path
             class="cls-11"
             d="m 734.87,595.08 c -1.72,-3.45 -6.7,-7.61 -9.54,-9.79 -25.85,-19.87 -53.43,-42.97 -74.15,-69.07 l -20.56,-13.19 c -0.49,-0.3 -1.12,-0.18 -1.45,0.28 -8.36,11.88 -22.34,19.26 -36.91,15.22 -26.62,-7.36 -49.98,-28.85 -70.61,-44.96 -0.62,-0.49 -1.5,-0.48 -2.11,0.02 -15.59,12.74 -32.51,23.72 -50.75,32.94 -16.31,8.24 -33.26,12.14 -51.34,7.22 -1.12,1.35 -1.34,2.58 -0.65,3.72 6,2.72 14.16,11.16 9.95,18.07 -4.69,7.7 -10.84,7.97 -18.43,0.79 l -5.01,4.06 c 8.35,15.37 -13.13,26.11 -16.67,8.85 -4.78,3.67 -8.07,8.54 -9.86,14.63 16.84,24.25 34.26,19.64 56.61,6.51 19.55,-11.48 36.91,-32.62 48.26,-52.27 l 1.9,-8.95 c 0.22,-1.04 1.56,-1.35 2.22,-0.52 0.05,0.06 0.1,0.11 0.15,0.17 l -2.36,0.35 c 0,0 44.4,80.81 69.01,52.75 1.52,-6.55 2.18,-13.63 1.97,-21.23 -0.07,-2.55 0.45,-2.67 1.58,-0.39 10.2,20.72 29.25,35.21 52.37,36.05 l 0.55,4.34 c 5.08,24.79 48.03,10.08 31.03,-16.71 2.8,2.69 4.75,6.13 5.86,10.32 0.46,1.74 1.17,3.14 2.12,4.19 12.79,14.09 35.04,22.96 52.79,25.72 8.14,1.26 18.51,1.86 31.1,1.82 4.08,-2.99 5.06,-6.64 2.91,-10.94 z m -130.7,-58.34 c -11.27,-8.28 13.66,-20.65 19.42,-9.52 0.18,0.37 0.21,0.78 0.06,1.16 -2.8,7.18 -12.1,13.78 -19.48,8.36 z m 34.86,11.35 c -6.62,16.67 -26.05,-4.31 -7.98,-18.07 0.76,-0.59 1.82,-0.57 2.57,0.02 6.4,5.01 8.2,11.02 5.41,18.05 z m 86.79,43.26 c -3.57,-0.61 -7.12,-1.78 -10.66,-3.5 -36.41,-17.67 -65.18,-38.65 -85.51,-74.58 -0.22,-0.39 -0.11,-0.87 0.24,-1.13 0.35,-0.26 0.85,-0.21 1.15,0.12 17.22,19.07 36.92,38.14 57.05,53.01 8.71,6.44 24.02,18.46 37.9,25.59 1.01,0.52 0.95,0.68 -0.17,0.49 z"
             id="path899" /><path
             class="cls-11"
             d="m 656.85,608.87 1.41,2.16 c -0.43,-0.74 -0.9,-1.46 -1.41,-2.16 z m 7.48,64.78 c -12.4,0.04 -13.66,-16.59 -10.1,-25.49 0.49,-1.23 1.11,-2.14 1.85,-2.74 -2.07,-18.92 0.77,-36.55 0.77,-36.55 -26.02,43.78 -67.34,-0.3 -85.29,-23.18 -0.23,-0.29 -0.69,-0.28 -0.9,0.04 -12.07,17.94 -33.46,35.02 -55.98,26.8 -18.14,-6.61 -32.85,-28.14 -40.87,-44.08 -0.26,-0.5 -0.94,-0.61 -1.33,-0.19 -14.27,15.03 -53.41,49.11 -75.98,38.45 -6.15,-2.91 -14.42,-8.09 -24.79,-15.54 -0.35,-0.26 -0.68,-0.22 -0.96,0.11 l -7.34,8.56 c 9.75,44.34 -38.72,101.09 -38.72,101.09 9.68,-2.86 18.37,-10.01 25.29,-16.2 0.34,-0.3 0.63,-0.27 0.88,0.12 11.47,18.09 35.41,4.41 48.12,-4.02 26.09,-17.32 46.88,-39.59 62.34,-66.8 0.26,-0.45 0.39,-0.41 0.41,0.1 0.87,17.51 7.09,32.77 18.68,45.77 34.75,38.93 74.57,12.07 83.7,-29.8 0.06,-0.26 0.41,-0.26 0.48,0 7.87,33.13 33.96,64.94 69.07,71.21 18.34,3.28 33.54,2.23 44.19,-14.25 -5.85,-3.07 -10.24,-7.78 -13.52,-13.39 z M 492.92,624.68 c 0.57,-5.87 8.9,-9.86 18.59,-8.9 9.68,0.94 17.06,6.47 16.49,12.33 -0.57,5.87 -8.9,9.86 -18.57,8.91 -9.69,-0.95 -17.08,-6.48 -16.5,-12.35 z m 37.32,33.37 c -7.45,1.23 -15.92,-0.74 -21.16,-6.44 -4.01,-4.35 -0.4,-8.71 4.63,-9.6 6.79,-1.19 16.22,-1.45 22,2.91 7.5,5.67 1.12,12.04 -5.47,13.13 z"
             id="path901" /><path
             class="cls-3"
             d="m 774.28,684.09 c -32.19,-20.59 -63.66,-43.21 -89.9,-71.4 -8.41,-1.95 -16.6,-5 -24.58,-9.14 -0.37,-0.19 -0.63,-0.1 -0.79,0.28 l -2.16,5.03 c 0.51,0.69 0.99,1.41 1.41,2.16 l -1.41,-2.16 c 0,0 -2.84,17.64 -0.77,36.55 1.54,-1.24 3.62,-1.16 6.24,0.23 5.31,5.35 15.88,24.34 3.77,27.89 -0.61,0.07 -1.19,0.11 -1.76,0.11 3.28,5.62 7.67,10.32 13.52,13.39 11.64,9.71 25.8,16.98 42.47,21.78 24.61,7.09 48.07,10.88 70.39,11.38 19.16,-11.36 -7.19,-30.2 -16.43,-36.11 z m 17.27,24.07 c -0.27,1.57 -1.76,2.64 -3.34,2.39 -3.45,-0.55 -6.84,-1.66 -10.15,-3.33 -34.31,-17.28 -67.22,-39.54 -93.35,-67.94 -3.91,-4.25 -7.51,-8.68 -10.8,-13.29 -0.11,-0.16 -0.09,-0.37 0.05,-0.5 0.15,-0.12 0.35,-0.12 0.5,0 24.03,21.69 50.28,40.33 78.73,55.89 7.19,3.94 40.01,16.98 38.36,26.77 z"
             id="path903" /><path
             class="cls-3"
             d="m 666.09,673.54 c -0.61,0.07 -1.19,0.11 -1.76,0.11 -4.79,-8.23 -7.19,-18.4 -8.25,-28.23 1.54,-1.24 3.62,-1.16 6.24,0.23 5.31,5.35 15.88,24.34 3.77,27.89 z"
             id="path905" /><path
             class="cls-9"
             d="m 666.09,673.54 c -0.61,0.07 -1.19,0.11 -1.76,0.11 -12.4,0.04 -13.66,-16.59 -10.1,-25.49 0.49,-1.23 1.11,-2.14 1.85,-2.74 1.54,-1.24 3.62,-1.16 6.24,0.23 5.31,5.35 15.88,24.34 3.77,27.89 z"
             id="path907" /><path
             class="cls-14"
             d="m 708.42,521.52 c -19.17,2.96 -38.26,1.19 -57.25,-5.29 l -20.56,-13.19 c -0.49,-0.3 -1.12,-0.18 -1.45,0.28 -8.36,11.88 -22.34,19.26 -36.91,15.22 -26.62,-7.36 -49.98,-28.85 -70.61,-44.96 -0.62,-0.49 -1.5,-0.48 -2.11,0.02 -15.59,12.74 -32.51,23.72 -50.75,32.94 -16.31,8.24 -33.26,12.14 -51.34,7.22 -6.5,-2.88 -11.91,-7 -16.23,-12.37 -0.68,-0.83 -1.86,-1.04 -2.78,-0.49 l -26.02,15.8 c -20.38,5.58 -42.49,9.18 -63,3.28 4.47,0.05 8.2,-0.58 11.19,-1.89 25.77,-11.27 51.26,-24.49 76.5,-39.62 0.89,-0.52 2.44,-1.32 4.64,-2.38 1.45,-0.69 2.97,-1.54 4.58,-2.55 0,0 0.1,11.99 16.64,11.99 3.22,0 8.2,-0.97 14.22,-2.96 0.6,-0.19 1.21,-0.4 1.83,-0.62 25.06,-8.8 65.85,-33.99 75.7,-77.61 0,0 0.49,0.85 1.41,2.39 4.34,7.26 18.28,29.96 35.09,50.93 1.38,1.71 2.77,3.41 4.17,5.08 13.13,15.67 27.59,29.52 40.45,34.02 13.18,3.63 25.59,-0.73 32.65,-22.8 8.91,9.59 19.03,17.87 30.35,24.85 15.88,9.79 32.4,17.36 49.57,22.71 z"
             id="path909" /><path
             class="cls-14"
             d="m 607.85,282.79 c -6.94,3.89 -16.09,3.35 -25.13,2.35 l -20.54,-6.34 -8.62,-3.97 c -0.38,-0.17 -0.65,-0.06 -0.78,0.33 0.56,9.15 -5.01,15.55 -12.66,19.15 -4.53,2.14 -9.79,3.29 -14.93,3.47 -13.83,0.48 -25.45,-24.69 -25.45,-24.69 0,0 -1.26,2.64 -7.97,2.93 -2.21,0.11 -5.01,-0.05 -8.56,-0.65 -8.42,-1.4 -11.55,-8.75 -12.7,-14.55 -7.19,5.39 -14.6,10.09 -22.24,14.14 -1.47,0.35 -4,1.28 -7.58,2.8 -5.64,2.38 -18.85,6.39 -25.47,3.55 l 2.64,-0.58 c 0.39,-0.09 0.74,-0.23 1.07,-0.46 1.22,-0.84 2.44,-1.68 3.66,-2.54 1.12,-0.78 2.24,-1.57 3.36,-2.38 2.8,-2 5.59,-4.05 8.35,-6.13 0.84,-0.63 1.68,-1.27 2.51,-1.91 0.97,-0.76 1.95,-1.5 2.91,-2.25 1.86,-1.46 3.72,-2.95 5.56,-4.44 1.01,-0.83 2.02,-1.66 3.02,-2.49 0.94,-0.78 1.88,-1.57 2.82,-2.36 0.94,-0.79 1.86,-1.58 2.79,-2.39 3.63,-3.12 7.22,-6.33 10.74,-9.6 0.07,-0.07 0.15,-0.13 0.22,-0.21 h 0.01 c 18.64,-21.06 32.55,-50.98 35.76,-58.16 0,-0.01 0.01,-0.01 0.01,-0.02 0.45,-1.01 0.68,-1.57 0.68,-1.57 4.5,30.49 42.29,66.05 46.78,70.18 h 0.01 c 0,0 0.04,0.05 0.05,0.05 0.06,0.05 0.12,0.09 0.2,0.12 0.4,0.29 0.82,0.58 1.24,0.87 0.41,0.29 0.84,0.56 1.26,0.84 0.09,0.06 0.17,0.12 0.26,0.17 0.04,0.02 0.07,0.05 0.11,0.07 0.34,0.24 0.69,0.46 1.05,0.69 0.04,0.02 0.09,0.05 0.12,0.07 0.89,0.58 1.79,1.16 2.71,1.72 1.13,0.69 2.27,1.38 3.41,2.04 0.15,0.1 0.3,0.18 0.45,0.26 1.13,0.66 2.28,1.3 3.44,1.93 14.6,7.91 29.75,14.56 45.44,19.99 z"
             id="path911" /><path
             class="cls-13"
             d="m 651.32,383.22 c -0.65,4.16 -2.66,7.31 -6.03,9.47 -10.3,-1.26 -19.48,-3.78 -27.53,-7.58 -20.54,-9.69 -37.1,-24.63 -49.69,-44.8 0,0 -19.18,-31.24 -16.95,-41.4 2.22,-10.18 11.44,-7.96 11.44,-7.96 0,0 -5.45,-12.77 -0.37,-12.14 l 1.04,0.32 c 0,0 0.04,0.01 0.05,0.02 l 19.45,6 c 19.07,26.79 38.75,52.65 59.61,76.6 5.09,5.85 10.21,13.64 8.98,21.48 z"
             id="path913" /><path
             class="cls-9"
             d="m 577.95,334.51 c -5.74,-4.51 -10.14,-11.38 -8.7,-18.79 0.93,-4.81 3.92,-6.53 8.98,-5.16 6.17,2.35 10.76,6.31 13.77,11.86 3.67,10.25 -4.08,19.92 -14.05,12.09 z"
             id="path915" /><path
             class="cls-9"
             d="m 573.7,300.59 c -2.92,-2.29 -5.15,-5.78 -4.42,-9.55 0.47,-2.45 1.99,-3.32 4.56,-2.62 3.13,1.19 5.47,3.21 6.99,6.02 1.86,5.21 -2.07,10.11 -7.14,6.14 z"
             id="path917" /></g><g
           id="g941"><path
             class="cls-14"
             d="m 515.05,245.64 c -0.06,-0.5 -0.13,-1 -0.23,-1.49 0,-0.04 -0.01,-0.08 -0.02,-0.12 -0.1,-0.49 -0.23,-0.97 -0.37,-1.44 -0.05,-0.16 -0.1,-0.32 -0.15,-0.47 -0.13,-0.39 -0.26,-0.76 -0.42,-1.14 -0.07,-0.17 -0.14,-0.34 -0.22,-0.52 -0.15,-0.35 -0.32,-0.69 -0.5,-1.03 -0.1,-0.2 -0.21,-0.39 -0.32,-0.59 -0.14,-0.24 -0.28,-0.47 -0.43,-0.71 -0.22,-0.34 -0.44,-0.67 -0.68,-1 -0.13,-0.17 -0.25,-0.34 -0.38,-0.51 -0.18,-0.23 -0.37,-0.46 -0.57,-0.68 -0.1,-0.11 -0.2,-0.22 -0.29,-0.32 -0.42,-0.46 -0.86,-0.89 -1.32,-1.31 -0.04,-0.04 -0.08,-0.08 -0.13,-0.11 -0.27,-0.23 -0.54,-0.46 -0.82,-0.67 -0.05,-0.04 -0.1,-0.07 -0.15,-0.11 -3,-2.27 -6.72,-3.63 -10.78,-3.63 -9.88,0 -17.9,8.01 -17.9,17.9 0,3.31 0.92,6.41 2.49,9.07 0.01,0.02 0.02,0.04 0.04,0.06 0.59,1 1.28,1.93 2.05,2.79 0.07,0.07 0.13,0.15 0.2,0.22 0.7,0.76 1.47,1.46 2.3,2.09 0.16,0.12 0.31,0.24 0.47,0.35 0.22,0.16 0.45,0.31 0.68,0.46 0.22,0.15 0.46,0.28 0.69,0.42 0.25,0.15 0.5,0.29 0.76,0.43 0.34,0.18 0.69,0.35 1.04,0.5 0.18,0.08 0.37,0.15 0.55,0.23 0.33,0.13 0.66,0.25 0.99,0.36 0.16,0.05 0.31,0.11 0.47,0.16 0.48,0.15 0.97,0.27 1.47,0.38 0.12,0.03 0.25,0.04 0.37,0.07 0.41,0.08 0.83,0.14 1.25,0.19 0.15,0.02 0.3,0.04 0.46,0.05 0.54,0.05 1.08,0.08 1.62,0.08 v 0 c 6.41,0 12.02,-3.38 15.18,-8.45 1.71,-2.74 2.72,-5.98 2.72,-9.45 0,-0.55 -0.03,-1.09 -0.08,-1.63 -0.01,-0.14 -0.03,-0.28 -0.04,-0.41 z"
             id="path921" /><path
             class="cls-14"
             d="m 448.29,515.84 c -0.06,-0.5 -0.13,-1 -0.23,-1.48 0,-0.04 -0.02,-0.09 -0.02,-0.13 -0.1,-0.49 -0.23,-0.97 -0.37,-1.44 -0.05,-0.16 -0.1,-0.32 -0.15,-0.48 -0.13,-0.38 -0.26,-0.76 -0.42,-1.14 -0.07,-0.17 -0.14,-0.35 -0.22,-0.52 -0.15,-0.35 -0.32,-0.69 -0.49,-1.03 -0.1,-0.2 -0.21,-0.4 -0.32,-0.59 -0.14,-0.24 -0.28,-0.47 -0.43,-0.7 -0.22,-0.34 -0.45,-0.68 -0.69,-1.01 -0.13,-0.17 -0.25,-0.34 -0.38,-0.51 -0.18,-0.23 -0.37,-0.46 -0.57,-0.69 -0.09,-0.11 -0.19,-0.21 -0.29,-0.32 -0.42,-0.46 -0.86,-0.89 -1.32,-1.31 -0.04,-0.04 -0.08,-0.08 -0.12,-0.11 -0.27,-0.23 -0.54,-0.45 -0.82,-0.67 -0.05,-0.04 -0.1,-0.08 -0.15,-0.11 -3,-2.27 -6.72,-3.63 -10.77,-3.63 -9.88,0 -17.9,8.01 -17.9,17.9 0,3.31 0.92,6.41 2.49,9.07 0.01,0.02 0.02,0.04 0.03,0.06 0.59,1 1.28,1.93 2.05,2.79 0.07,0.07 0.13,0.15 0.2,0.22 0.7,0.76 1.47,1.46 2.3,2.09 0.16,0.12 0.31,0.24 0.47,0.35 0.22,0.16 0.45,0.31 0.68,0.46 0.23,0.15 0.46,0.28 0.69,0.42 0.25,0.15 0.5,0.29 0.76,0.43 0.34,0.18 0.69,0.35 1.04,0.5 0.18,0.08 0.37,0.15 0.55,0.23 0.33,0.13 0.65,0.25 0.99,0.36 0.16,0.05 0.31,0.11 0.47,0.16 0.48,0.15 0.97,0.27 1.47,0.38 0.12,0.03 0.25,0.04 0.37,0.07 0.41,0.08 0.83,0.14 1.25,0.19 0.15,0.02 0.3,0.04 0.46,0.05 0.54,0.05 1.08,0.08 1.62,0.08 0,0 0,0 0,0 6.79,0 12.71,-3.79 15.74,-9.37 1.38,-2.54 2.16,-5.44 2.16,-8.53 0,-0.55 -0.03,-1.09 -0.08,-1.62 -0.01,-0.14 -0.03,-0.28 -0.04,-0.42 z"
             id="path923" /><path
             class="cls-14"
             d="m 643.88,649.57 c 0,-0.55 -0.03,-1.09 -0.08,-1.63 -0.01,-0.14 -0.03,-0.28 -0.04,-0.41 -0.06,-0.5 -0.13,-1 -0.23,-1.49 0,-0.04 -0.01,-0.08 -0.02,-0.12 -0.1,-0.49 -0.23,-0.97 -0.37,-1.44 -0.05,-0.16 -0.1,-0.32 -0.15,-0.47 -0.13,-0.39 -0.26,-0.76 -0.42,-1.14 -0.07,-0.17 -0.14,-0.35 -0.22,-0.52 -0.16,-0.35 -0.32,-0.69 -0.5,-1.03 -0.1,-0.2 -0.21,-0.4 -0.32,-0.59 -0.14,-0.24 -0.28,-0.47 -0.43,-0.71 -0.22,-0.34 -0.44,-0.67 -0.68,-1 -0.13,-0.17 -0.25,-0.34 -0.38,-0.51 -0.18,-0.23 -0.37,-0.46 -0.57,-0.68 -0.1,-0.11 -0.2,-0.22 -0.3,-0.33 -0.42,-0.46 -0.86,-0.89 -1.32,-1.3 -0.04,-0.04 -0.09,-0.08 -0.13,-0.12 -0.27,-0.23 -0.54,-0.45 -0.82,-0.67 -0.05,-0.04 -0.1,-0.07 -0.15,-0.11 -0.58,-0.44 -1.18,-0.84 -1.81,-1.21 0,0 0,0 0,0 v 0 c -2.64,-1.53 -5.69,-2.42 -8.96,-2.42 -9.88,0 -17.9,8.01 -17.9,17.9 0,3.32 0.92,6.41 2.49,9.07 0.01,0.02 0.02,0.04 0.03,0.05 0.59,1 1.28,1.93 2.05,2.79 0.07,0.07 0.13,0.15 0.2,0.22 0.7,0.76 1.47,1.46 2.29,2.09 0.16,0.12 0.31,0.24 0.48,0.36 0.22,0.16 0.45,0.31 0.68,0.46 0.23,0.15 0.46,0.28 0.69,0.42 0.25,0.15 0.5,0.29 0.76,0.43 0.34,0.18 0.69,0.35 1.04,0.5 0.18,0.08 0.37,0.15 0.55,0.23 0.33,0.13 0.65,0.25 0.99,0.36 0.16,0.05 0.31,0.11 0.47,0.16 0.48,0.15 0.97,0.27 1.47,0.38 0.12,0.03 0.25,0.04 0.37,0.07 0.41,0.08 0.83,0.14 1.25,0.19 0.15,0.02 0.3,0.04 0.46,0.05 0.54,0.05 1.08,0.08 1.62,0.08 v 0 c 6.41,0 12.02,-3.38 15.18,-8.45 1.71,-2.74 2.72,-5.98 2.72,-9.45 z"
             id="path925" /><path
             class="cls-14"
             d="m 429.15,770.26 c -0.08,-0.67 -0.17,-1.34 -0.3,-2 -0.01,-0.06 -0.02,-0.12 -0.03,-0.17 -0.14,-0.66 -0.31,-1.3 -0.5,-1.94 -0.06,-0.21 -0.13,-0.43 -0.2,-0.64 -0.17,-0.52 -0.36,-1.03 -0.56,-1.53 -0.09,-0.23 -0.19,-0.47 -0.29,-0.7 -0.21,-0.47 -0.43,-0.93 -0.67,-1.38 -0.14,-0.27 -0.28,-0.53 -0.43,-0.79 -0.18,-0.32 -0.38,-0.64 -0.58,-0.95 -0.29,-0.46 -0.6,-0.91 -0.92,-1.34 -0.17,-0.23 -0.34,-0.46 -0.52,-0.69 -0.25,-0.31 -0.5,-0.62 -0.77,-0.92 -0.13,-0.15 -0.26,-0.29 -0.4,-0.44 -0.56,-0.61 -1.15,-1.2 -1.77,-1.75 -0.06,-0.05 -0.12,-0.11 -0.18,-0.16 -0.36,-0.31 -0.72,-0.61 -1.1,-0.9 -0.07,-0.05 -0.14,-0.1 -0.21,-0.16 -0.78,-0.59 -1.58,-1.13 -2.43,-1.62 0,0 0,0 0,0 v 0 c -3.55,-2.06 -7.66,-3.26 -12.06,-3.26 -13.29,0 -24.07,10.78 -24.07,24.07 0,4.46 1.23,8.62 3.35,12.2 0.02,0.03 0.03,0.05 0.05,0.08 0.8,1.34 1.72,2.6 2.76,3.75 0.09,0.1 0.18,0.2 0.27,0.3 0.95,1.02 1.98,1.96 3.08,2.8 0.21,0.16 0.42,0.32 0.64,0.48 0.3,0.21 0.6,0.42 0.91,0.62 0.3,0.2 0.62,0.38 0.93,0.56 0.34,0.2 0.68,0.39 1.02,0.57 0.46,0.24 0.93,0.47 1.41,0.68 0.24,0.11 0.49,0.21 0.74,0.3 0.44,0.18 0.88,0.34 1.33,0.49 0.21,0.07 0.42,0.15 0.63,0.21 0.65,0.2 1.31,0.37 1.97,0.51 0.17,0.03 0.33,0.06 0.5,0.09 0.55,0.1 1.11,0.19 1.68,0.26 0.21,0.02 0.41,0.05 0.62,0.07 0.72,0.07 1.45,0.11 2.19,0.11 0,0 0,0 0,0 5.82,0 11.15,-2.06 15.31,-5.5 1.19,-0.98 2.28,-2.07 3.26,-3.26 3.43,-4.16 5.5,-9.5 5.5,-15.31 0,-0.74 -0.05,-1.47 -0.11,-2.19 -0.02,-0.19 -0.04,-0.37 -0.06,-0.56 z"
             id="path927" /><path
             class="cls-14"
             d="m 558.12,488.74 c 0.07,0.07 0.13,0.15 0.2,0.22 0.7,0.76 1.47,1.46 2.3,2.09 0.16,0.12 0.31,0.24 0.47,0.35 0.22,0.16 0.45,0.31 0.68,0.46 0.23,0.15 0.46,0.28 0.69,0.42 0.25,0.15 0.5,0.29 0.76,0.43 0.34,0.18 0.69,0.35 1.04,0.5 0.18,0.08 0.37,0.15 0.55,0.23 0.33,0.13 0.65,0.25 0.99,0.36 0.16,0.05 0.31,0.11 0.47,0.16 0.48,0.15 0.97,0.27 1.47,0.38 0.12,0.03 0.25,0.04 0.37,0.07 0.41,0.08 0.83,0.14 1.25,0.19 0.15,0.02 0.3,0.04 0.46,0.05 0.54,0.05 1.08,0.08 1.62,0.08 v 0 c 6.8,0 12.71,-3.79 15.74,-9.37 1.38,-2.54 2.16,-5.44 2.16,-8.53 0,-0.55 -0.03,-1.09 -0.08,-1.62 -0.01,-0.14 -0.03,-0.28 -0.04,-0.42 -0.06,-0.5 -0.13,-1 -0.23,-1.48 0,-0.04 -0.02,-0.09 -0.02,-0.13 -0.1,-0.49 -0.23,-0.97 -0.37,-1.44 -0.05,-0.16 -0.1,-0.32 -0.15,-0.48 -0.13,-0.38 -0.26,-0.76 -0.42,-1.14 -0.07,-0.17 -0.14,-0.35 -0.22,-0.52 -0.15,-0.35 -0.32,-0.69 -0.49,-1.03 -0.1,-0.2 -0.21,-0.4 -0.32,-0.59 -0.14,-0.24 -0.28,-0.47 -0.43,-0.7 -0.22,-0.34 -0.45,-0.68 -0.69,-1.01 -0.13,-0.17 -0.25,-0.34 -0.38,-0.51 -0.18,-0.23 -0.37,-0.46 -0.57,-0.69 -0.09,-0.11 -0.19,-0.21 -0.29,-0.32 -0.42,-0.46 -0.86,-0.89 -1.33,-1.31 -0.04,-0.04 -0.08,-0.08 -0.12,-0.11 -0.27,-0.23 -0.54,-0.45 -0.82,-0.67 -0.05,-0.04 -0.1,-0.08 -0.15,-0.11 -3,-2.27 -6.72,-3.63 -10.77,-3.63 -9.88,0 -17.9,8.01 -17.9,17.9 0,3.31 0.92,6.41 2.49,9.07 0.01,0.02 0.02,0.04 0.03,0.06 0.59,1 1.28,1.93 2.05,2.79 z"
             id="path929" /><path
             class="cls-14"
             d="m 379.63,663.52 c 0.07,0.07 0.13,0.15 0.2,0.22 0.7,0.76 1.47,1.46 2.29,2.08 0.16,0.12 0.31,0.24 0.48,0.36 0.22,0.16 0.45,0.31 0.68,0.46 0.23,0.15 0.46,0.28 0.69,0.42 0.25,0.15 0.5,0.29 0.76,0.42 0.34,0.18 0.69,0.35 1.04,0.5 0.18,0.08 0.37,0.15 0.55,0.23 0.33,0.13 0.65,0.25 0.99,0.36 0.16,0.05 0.31,0.11 0.47,0.16 0.48,0.15 0.97,0.27 1.47,0.38 0.12,0.03 0.25,0.04 0.37,0.07 0.41,0.08 0.83,0.14 1.25,0.19 0.15,0.02 0.3,0.04 0.46,0.05 0.54,0.05 1.08,0.08 1.62,0.08 0,0 0,0 0,0 6.55,0 12.27,-3.53 15.38,-8.79 1.59,-2.67 2.51,-5.78 2.51,-9.11 0,-0.55 -0.03,-1.09 -0.08,-1.63 -0.01,-0.14 -0.03,-0.28 -0.04,-0.41 -0.06,-0.5 -0.13,-1 -0.23,-1.49 0,-0.04 -0.01,-0.08 -0.02,-0.12 -0.1,-0.49 -0.23,-0.97 -0.37,-1.44 -0.05,-0.16 -0.1,-0.32 -0.15,-0.47 -0.13,-0.39 -0.26,-0.76 -0.42,-1.14 -0.07,-0.17 -0.14,-0.34 -0.22,-0.52 -0.15,-0.35 -0.32,-0.69 -0.5,-1.03 -0.1,-0.2 -0.21,-0.4 -0.32,-0.59 -0.14,-0.24 -0.28,-0.47 -0.43,-0.7 -0.22,-0.34 -0.45,-0.68 -0.69,-1 -0.13,-0.17 -0.25,-0.34 -0.38,-0.51 -0.18,-0.23 -0.37,-0.46 -0.57,-0.68 -0.1,-0.11 -0.2,-0.22 -0.29,-0.32 -0.42,-0.46 -0.86,-0.89 -1.32,-1.3 -0.04,-0.04 -0.09,-0.08 -0.13,-0.12 -0.27,-0.23 -0.54,-0.45 -0.82,-0.67 -0.05,-0.04 -0.1,-0.07 -0.15,-0.11 -0.58,-0.44 -1.18,-0.84 -1.81,-1.21 0,0 0,0 0,0 v 0 c -2.64,-1.53 -5.69,-2.42 -8.96,-2.42 -9.88,0 -17.9,8.01 -17.9,17.9 0,3.31 0.92,6.41 2.49,9.07 0.01,0.02 0.02,0.04 0.03,0.06 0.59,1 1.28,1.93 2.05,2.79 z"
             id="path931" /><path
             class="cls-14"
             d="m 538.85,368 c 0.78,1.31 1.68,2.53 2.68,3.66 0.09,0.1 0.17,0.19 0.26,0.28 0.92,1 1.92,1.91 3,2.73 0.21,0.16 0.41,0.31 0.62,0.47 0.29,0.21 0.58,0.41 0.88,0.6 0.3,0.19 0.6,0.37 0.9,0.55 0.33,0.19 0.66,0.38 0.99,0.56 0.45,0.23 0.9,0.45 1.37,0.66 0.24,0.1 0.48,0.2 0.72,0.3 0.43,0.17 0.86,0.33 1.29,0.47 0.21,0.07 0.41,0.14 0.62,0.2 0.63,0.19 1.27,0.36 1.92,0.49 0.16,0.03 0.32,0.06 0.49,0.09 0.54,0.1 1.08,0.19 1.64,0.25 0.2,0.02 0.4,0.05 0.6,0.06 0.7,0.06 1.41,0.11 2.13,0.11 v 0 c 7.88,0 14.84,-3.9 19.08,-9.87 0.28,-0.39 0.54,-0.8 0.8,-1.21 0.43,-0.7 0.83,-1.42 1.19,-2.16 1.49,-3.08 2.35,-6.53 2.35,-10.18 0,-0.72 -0.04,-1.43 -0.11,-2.13 -0.02,-0.18 -0.03,-0.36 -0.06,-0.54 -0.07,-0.66 -0.17,-1.31 -0.3,-1.95 -0.01,-0.05 -0.02,-0.11 -0.03,-0.16 -0.13,-0.64 -0.3,-1.27 -0.48,-1.89 -0.06,-0.21 -0.13,-0.41 -0.19,-0.62 -0.17,-0.5 -0.35,-1 -0.55,-1.49 -0.09,-0.23 -0.19,-0.45 -0.28,-0.67 -0.2,-0.46 -0.42,-0.91 -0.65,-1.35 -0.14,-0.26 -0.28,-0.52 -0.42,-0.77 -0.18,-0.31 -0.37,-0.62 -0.56,-0.92 -0.28,-0.45 -0.58,-0.88 -0.89,-1.31 -0.17,-0.23 -0.33,-0.45 -0.5,-0.67 -0.24,-0.31 -0.49,-0.6 -0.74,-0.89 -0.13,-0.14 -0.26,-0.28 -0.39,-0.43 -0.55,-0.6 -1.12,-1.17 -1.73,-1.7 -0.06,-0.05 -0.11,-0.1 -0.17,-0.15 -0.35,-0.3 -0.71,-0.6 -1.07,-0.88 -0.06,-0.05 -0.13,-0.1 -0.2,-0.15 -3.93,-2.97 -8.8,-4.75 -14.1,-4.75 -12.94,0 -23.42,10.49 -23.42,23.42 0,4.34 1.2,8.39 3.26,11.87 0.01,0.02 0.03,0.05 0.04,0.07 z"
             id="path933" /><path
             class="cls-14"
             d="m 481.11,391.48 c -0.05,-0.48 -0.12,-0.96 -0.22,-1.43 0,-0.04 -0.01,-0.08 -0.02,-0.11 -0.1,-0.47 -0.22,-0.93 -0.36,-1.38 -0.05,-0.15 -0.09,-0.3 -0.14,-0.45 -0.12,-0.37 -0.25,-0.73 -0.4,-1.09 -0.07,-0.16 -0.14,-0.33 -0.21,-0.49 -0.15,-0.34 -0.31,-0.67 -0.48,-0.99 -0.1,-0.19 -0.2,-0.38 -0.31,-0.57 -0.13,-0.23 -0.27,-0.45 -0.41,-0.68 -0.21,-0.33 -0.43,-0.64 -0.65,-0.96 -0.12,-0.17 -0.24,-0.33 -0.37,-0.49 -0.18,-0.22 -0.36,-0.44 -0.54,-0.65 -0.09,-0.11 -0.19,-0.21 -0.28,-0.31 -0.4,-0.44 -0.82,-0.85 -1.26,-1.25 -0.04,-0.04 -0.08,-0.08 -0.12,-0.11 -0.26,-0.22 -0.52,-0.44 -0.78,-0.64 -0.05,-0.04 -0.1,-0.07 -0.14,-0.11 -2.87,-2.17 -6.44,-3.48 -10.33,-3.48 -9.47,0 -17.15,7.68 -17.15,17.15 0,3.18 0.88,6.14 2.38,8.69 0.01,0.02 0.02,0.04 0.03,0.05 0.57,0.96 1.23,1.85 1.96,2.67 0.06,0.07 0.13,0.14 0.19,0.21 0.67,0.73 1.41,1.4 2.2,2 0.15,0.11 0.3,0.23 0.45,0.34 0.21,0.15 0.43,0.3 0.65,0.44 0.22,0.14 0.44,0.27 0.66,0.4 0.24,0.14 0.49,0.28 0.74,0.41 0.33,0.17 0.66,0.33 0.99,0.48 0.17,0.08 0.35,0.15 0.53,0.22 0.31,0.12 0.62,0.24 0.94,0.35 0.15,0.05 0.3,0.1 0.45,0.15 0.46,0.14 0.93,0.26 1.41,0.36 0.12,0.02 0.24,0.04 0.36,0.06 0.39,0.07 0.79,0.13 1.19,0.18 0.15,0.02 0.29,0.03 0.44,0.05 0.51,0.05 1.03,0.08 1.56,0.08 0,0 0,0 0,0 5.33,0 10.09,-2.43 13.23,-6.24 1.05,-1.27 1.92,-2.69 2.57,-4.23 0.87,-2.05 1.35,-4.31 1.35,-6.67 0,-0.53 -0.03,-1.04 -0.08,-1.56 -0.01,-0.13 -0.03,-0.26 -0.04,-0.4 z"
             id="path935" /><path
             class="cls-14"
             d="m 551.04,572.17 c -0.05,-0.48 -0.12,-0.96 -0.22,-1.43 0,-0.04 -0.01,-0.08 -0.02,-0.12 -0.1,-0.47 -0.22,-0.93 -0.36,-1.38 -0.05,-0.15 -0.09,-0.3 -0.14,-0.45 -0.12,-0.37 -0.25,-0.73 -0.4,-1.09 -0.07,-0.17 -0.14,-0.33 -0.21,-0.49 -0.15,-0.33 -0.31,-0.66 -0.48,-0.99 -0.1,-0.19 -0.2,-0.38 -0.31,-0.57 -0.13,-0.23 -0.27,-0.45 -0.41,-0.68 -0.21,-0.33 -0.43,-0.64 -0.65,-0.96 -0.12,-0.17 -0.24,-0.33 -0.37,-0.49 -0.18,-0.22 -0.36,-0.44 -0.54,-0.65 -0.09,-0.11 -0.19,-0.21 -0.28,-0.31 -0.4,-0.44 -0.82,-0.85 -1.26,-1.25 -0.04,-0.04 -0.08,-0.08 -0.12,-0.11 -0.25,-0.22 -0.52,-0.43 -0.78,-0.64 -0.05,-0.04 -0.1,-0.07 -0.15,-0.11 -0.55,-0.42 -1.13,-0.81 -1.73,-1.16 v 0 c -2.53,-1.47 -5.46,-2.32 -8.59,-2.32 -9.47,0 -17.15,7.68 -17.15,17.15 0,3.18 0.88,6.14 2.38,8.69 0.01,0.02 0.02,0.04 0.03,0.06 0.57,0.96 1.23,1.85 1.96,2.67 0.06,0.07 0.13,0.14 0.19,0.21 0.67,0.73 1.41,1.4 2.2,2 0.15,0.12 0.3,0.23 0.46,0.34 0.21,0.15 0.43,0.3 0.65,0.44 0.22,0.14 0.44,0.27 0.66,0.4 0.24,0.14 0.49,0.28 0.74,0.41 0.33,0.17 0.66,0.33 1,0.48 0.17,0.08 0.35,0.15 0.53,0.22 0.31,0.12 0.63,0.24 0.95,0.35 0.15,0.05 0.3,0.1 0.45,0.15 0.46,0.14 0.93,0.26 1.41,0.36 0.12,0.02 0.24,0.04 0.36,0.06 0.39,0.07 0.79,0.13 1.19,0.18 0.15,0.02 0.29,0.03 0.44,0.05 0.51,0.05 1.03,0.08 1.56,0.08 0,0 0,0 0,0 4.74,0 9.02,-1.92 12.12,-5.02 1.16,-1.16 2.16,-2.49 2.95,-3.95 1.32,-2.43 2.07,-5.21 2.07,-8.17 0,-0.53 -0.03,-1.04 -0.08,-1.56 -0.01,-0.13 -0.03,-0.26 -0.04,-0.4 z"
             id="path937" /><path
             class="cls-14"
             d="m 604.85,716.59 c -0.05,-0.48 -0.12,-0.96 -0.22,-1.43 0,-0.04 -0.01,-0.08 -0.02,-0.11 -0.1,-0.47 -0.22,-0.93 -0.36,-1.38 -0.05,-0.15 -0.09,-0.3 -0.14,-0.45 -0.12,-0.37 -0.25,-0.73 -0.4,-1.09 -0.07,-0.16 -0.13,-0.33 -0.21,-0.49 -0.15,-0.34 -0.31,-0.66 -0.48,-0.99 -0.1,-0.19 -0.2,-0.38 -0.31,-0.57 -0.13,-0.23 -0.27,-0.45 -0.41,-0.68 -0.21,-0.33 -0.43,-0.64 -0.65,-0.96 -0.12,-0.17 -0.24,-0.33 -0.37,-0.49 -0.18,-0.22 -0.36,-0.44 -0.54,-0.65 -0.09,-0.11 -0.19,-0.21 -0.28,-0.31 -0.4,-0.44 -0.82,-0.85 -1.26,-1.25 -0.04,-0.04 -0.08,-0.08 -0.12,-0.11 -0.26,-0.22 -0.52,-0.44 -0.79,-0.64 -0.05,-0.04 -0.1,-0.07 -0.14,-0.11 -2.87,-2.17 -6.44,-3.48 -10.33,-3.48 -9.47,0 -17.15,7.68 -17.15,17.15 0,3.18 0.88,6.14 2.38,8.69 0.01,0.02 0.02,0.04 0.03,0.05 0.57,0.96 1.23,1.85 1.96,2.67 0.06,0.07 0.13,0.14 0.19,0.21 0.67,0.73 1.41,1.4 2.2,2 0.15,0.11 0.3,0.23 0.45,0.34 0.21,0.15 0.43,0.3 0.65,0.44 0.22,0.14 0.44,0.27 0.66,0.4 0.24,0.14 0.48,0.28 0.73,0.41 0.33,0.17 0.66,0.33 1,0.48 0.17,0.08 0.35,0.15 0.53,0.22 0.31,0.12 0.63,0.24 0.94,0.35 0.15,0.05 0.3,0.1 0.45,0.15 0.46,0.14 0.93,0.26 1.41,0.36 0.12,0.02 0.24,0.04 0.36,0.06 0.39,0.07 0.79,0.14 1.19,0.18 0.15,0.02 0.29,0.03 0.44,0.05 0.51,0.05 1.03,0.08 1.56,0.08 0,0 0,0 0,0 5.33,0 10.09,-2.43 13.23,-6.24 1.05,-1.27 1.92,-2.69 2.57,-4.23 0.87,-2.05 1.35,-4.31 1.35,-6.67 0,-0.53 -0.03,-1.04 -0.08,-1.56 -0.01,-0.13 -0.03,-0.26 -0.04,-0.4 z"
             id="path939" /></g><g
           id="g949"><path
             class="cls-7"
             d="m 508.82,241.95 c 0,9.88 -8.01,17.9 -17.9,17.9 -9.89,0 -17.9,-8.01 -17.9,-17.9 0,-9.89 8.01,-17.9 17.9,-17.9 9.89,0 17.9,8.01 17.9,17.9 z"
             id="path943" /><path
             class="cls-1"
             d="m 499.89,226.48 c 1.21,2.41 1.91,5.13 1.91,8.01 0,9.88 -8.01,17.9 -17.9,17.9 -3.27,0 -6.33,-0.89 -8.96,-2.42 2.94,5.86 8.99,9.88 15.99,9.88 9.88,0 17.9,-8.01 17.9,-17.9 0,-6.61 -3.6,-12.37 -8.93,-15.47 z"
             id="path945" /><path
             class="cls-10"
             d="m 492.49,232.28 c 0,1.7 -1.57,3.07 -3.51,3.07 -1.94,0 -3.51,-1.38 -3.51,-3.07 0,-1.69 1.57,-3.07 3.51,-3.07 1.94,0 3.51,1.38 3.51,3.07 z"
             id="path947" /></g><g
           id="g957"><path
             class="cls-7"
             d="m 442.06,512.16 c 0,9.88 -8.01,17.9 -17.9,17.9 -9.89,0 -17.9,-8.01 -17.9,-17.9 0,-9.89 8.01,-17.9 17.9,-17.9 9.89,0 17.9,8.01 17.9,17.9 z"
             id="path951" /><path
             class="cls-1"
             d="m 433.13,496.69 c 1.21,2.41 1.91,5.13 1.91,8.01 0,9.88 -8.01,17.9 -17.9,17.9 -3.27,0 -6.33,-0.89 -8.96,-2.42 2.94,5.86 8.99,9.88 15.99,9.88 9.88,0 17.9,-8.01 17.9,-17.9 0,-6.61 -3.6,-12.37 -8.93,-15.47 z"
             id="path953" /><path
             class="cls-10"
             d="m 425.73,502.49 c 0,1.7 -1.57,3.07 -3.51,3.07 -1.94,0 -3.51,-1.38 -3.51,-3.07 0,-1.69 1.57,-3.07 3.51,-3.07 1.94,0 3.51,1.37 3.51,3.07 z"
             id="path955" /></g><g
           id="g965"><path
             class="cls-7"
             d="m 637.52,643.85 c 0,9.88 -8.01,17.9 -17.9,17.9 -9.89,0 -17.9,-8.01 -17.9,-17.9 0,-9.89 8.01,-17.9 17.9,-17.9 9.89,0 17.9,8.01 17.9,17.9 z"
             id="path959" /><path
             class="cls-1"
             d="m 628.59,628.37 c 1.21,2.41 1.91,5.13 1.91,8.01 0,9.88 -8.01,17.9 -17.9,17.9 -3.27,0 -6.33,-0.89 -8.96,-2.42 2.94,5.86 8.99,9.88 15.99,9.88 9.88,0 17.9,-8.01 17.9,-17.9 0,-6.61 -3.6,-12.37 -8.93,-15.47 z"
             id="path961" /><path
             class="cls-10"
             d="m 621.19,634.18 c 0,1.7 -1.57,3.07 -3.51,3.07 -1.94,0 -3.51,-1.38 -3.51,-3.07 0,-1.69 1.57,-3.07 3.51,-3.07 1.94,0 3.51,1.38 3.51,3.07 z"
             id="path963" /></g><g
           id="g973"><circle
             class="cls-7"
             cx="398.88"
             cy="767.28003"
             r="24.07"
             id="circle967" /><path
             class="cls-1"
             d="m 410.94,746.47 c 1.63,3.25 2.57,6.9 2.57,10.78 0,13.29 -10.78,24.07 -24.07,24.07 -4.4,0 -8.51,-1.2 -12.06,-3.26 3.96,7.88 12.09,13.29 21.5,13.29 13.29,0 24.07,-10.78 24.07,-24.07 0,-8.9 -4.84,-16.64 -12.01,-20.81 z"
             id="path969" /><path
             class="cls-10"
             d="m 400.99,754.27 c 0,2.28 -2.11,4.13 -4.72,4.13 -2.61,0 -4.72,-1.85 -4.72,-4.13 0,-2.28 2.11,-4.13 4.72,-4.13 2.61,0 4.72,1.85 4.72,4.13 z"
             id="path971" /></g><g
           id="g981"><path
             class="cls-7"
             d="m 582.98,471.1 c 0,9.88 -8.01,17.9 -17.9,17.9 -9.89,0 -17.9,-8.01 -17.9,-17.9 0,-9.89 8.01,-17.9 17.9,-17.9 9.89,0 17.9,8.01 17.9,17.9 z"
             id="path975" /><path
             class="cls-1"
             d="m 574.05,455.63 c 1.21,2.41 1.91,5.13 1.91,8.01 0,9.88 -8.01,17.9 -17.9,17.9 -3.27,0 -6.33,-0.89 -8.96,-2.42 2.94,5.86 8.99,9.88 15.99,9.88 9.88,0 17.9,-8.01 17.9,-17.9 0,-6.61 -3.6,-12.37 -8.93,-15.47 z"
             id="path977" /><path
             class="cls-10"
             d="m 566.65,461.43 c 0,1.7 -1.57,3.07 -3.51,3.07 -1.94,0 -3.51,-1.38 -3.51,-3.07 0,-1.69 1.57,-3.07 3.51,-3.07 1.94,0 3.51,1.38 3.51,3.07 z"
             id="path979" /></g><g
           id="g989"><path
             class="cls-7"
             d="m 404.49,645.89 c 0,9.88 -8.01,17.9 -17.9,17.9 -9.89,0 -17.9,-8.01 -17.9,-17.9 0,-9.89 8.01,-17.9 17.9,-17.9 9.89,0 17.9,8.01 17.9,17.9 z"
             id="path983" /><path
             class="cls-1"
             d="m 395.56,630.41 c 1.21,2.41 1.91,5.13 1.91,8.01 0,9.88 -8.01,17.9 -17.9,17.9 -3.27,0 -6.33,-0.89 -8.96,-2.42 2.94,5.86 8.99,9.88 15.99,9.88 9.88,0 17.9,-8.01 17.9,-17.9 0,-6.61 -3.6,-12.37 -8.93,-15.47 z"
             id="path985" /><path
             class="cls-10"
             d="m 388.16,636.22 c 0,1.7 -1.57,3.07 -3.51,3.07 -1.94,0 -3.51,-1.38 -3.51,-3.07 0,-1.69 1.57,-3.07 3.51,-3.07 1.94,0 3.51,1.38 3.51,3.07 z"
             id="path987" /></g><g
           id="g997"><path
             class="cls-1"
             d="m 576.04,350.34 c 0,12.94 -10.49,23.42 -23.42,23.42 -12.93,0 -23.42,-10.49 -23.42,-23.42 0,-12.93 10.49,-23.42 23.42,-23.42 12.93,0 23.42,10.49 23.42,23.42 z"
             id="path991" /><path
             class="cls-12"
             d="m 564.35,330.08 c 1.59,3.16 2.5,6.71 2.5,10.49 0,12.94 -10.49,23.42 -23.42,23.42 -4.28,0 -8.28,-1.17 -11.73,-3.17 3.85,7.66 11.76,12.94 20.92,12.94 12.94,0 23.42,-10.49 23.42,-23.42 0,-8.66 -4.71,-16.2 -11.69,-20.25 z"
             id="path993" /><path
             class="cls-10"
             d="m 554.66,337.68 c 0,2.22 -2.06,4.02 -4.59,4.02 -2.53,0 -4.59,-1.8 -4.59,-4.02 0,-2.22 2.06,-4.02 4.59,-4.02 2.53,0 4.59,1.8 4.59,4.02 z"
             id="path995" /></g><g
           id="g1005"><path
             class="cls-1"
             d="m 474.87,387.71 c 0,9.47 -7.68,17.15 -17.15,17.15 -9.47,0 -17.15,-7.68 -17.15,-17.15 0,-9.47 7.68,-17.15 17.15,-17.15 9.47,0 17.15,7.68 17.15,17.15 z"
             id="path999" /><path
             class="cls-12"
             d="m 466.31,372.88 c 1.16,2.31 1.83,4.91 1.83,7.68 0,9.47 -7.68,17.15 -17.15,17.15 -3.13,0 -6.06,-0.85 -8.59,-2.32 2.82,5.61 8.61,9.47 15.32,9.47 9.47,0 17.15,-7.68 17.15,-17.15 0,-6.34 -3.45,-11.86 -8.56,-14.83 z"
             id="path1001" /><path
             class="cls-10"
             d="m 459.22,378.45 c 0,1.63 -1.51,2.94 -3.36,2.94 -1.85,0 -3.36,-1.32 -3.36,-2.94 0,-1.62 1.51,-2.94 3.36,-2.94 1.85,0 3.36,1.32 3.36,2.94 z"
             id="path1003" /></g><g
           id="g1013"><path
             class="cls-1"
             d="m 544.8,568.4 c 0,9.47 -7.68,17.15 -17.15,17.15 -9.47,0 -17.15,-7.68 -17.15,-17.15 0,-9.47 7.68,-17.15 17.15,-17.15 9.47,0 17.15,7.68 17.15,17.15 z"
             id="path1007" /><path
             class="cls-12"
             d="m 536.24,553.57 c 1.16,2.31 1.83,4.91 1.83,7.68 0,9.47 -7.68,17.15 -17.15,17.15 -3.13,0 -6.06,-0.85 -8.59,-2.32 2.82,5.61 8.61,9.47 15.32,9.47 9.47,0 17.15,-7.68 17.15,-17.15 0,-6.34 -3.45,-11.86 -8.56,-14.83 z"
             id="path1009" /><path
             class="cls-10"
             d="m 529.15,559.13 c 0,1.63 -1.51,2.94 -3.36,2.94 -1.85,0 -3.36,-1.32 -3.36,-2.94 0,-1.62 1.51,-2.94 3.36,-2.94 1.85,0 3.36,1.32 3.36,2.94 z"
             id="path1011" /></g><g
           id="g1021"><path
             class="cls-1"
             d="m 598.61,712.82 c 0,9.47 -7.68,17.15 -17.15,17.15 -9.47,0 -17.15,-7.68 -17.15,-17.15 0,-9.47 7.68,-17.15 17.15,-17.15 9.47,0 17.15,7.68 17.15,17.15 z"
             id="path1015" /><path
             class="cls-12"
             d="m 590.05,698 c 1.16,2.31 1.83,4.91 1.83,7.68 0,9.47 -7.68,17.15 -17.15,17.15 -3.13,0 -6.06,-0.85 -8.59,-2.32 2.82,5.61 8.61,9.47 15.32,9.47 9.47,0 17.15,-7.68 17.15,-17.15 0,-6.34 -3.45,-11.86 -8.56,-14.83 z"
             id="path1017" /><path
             class="cls-10"
             d="m 582.96,703.56 c 0,1.63 -1.51,2.94 -3.36,2.94 -1.85,0 -3.36,-1.32 -3.36,-2.94 0,-1.62 1.51,-2.94 3.36,-2.94 1.85,0 3.36,1.32 3.36,2.94 z"
             id="path1019" /></g><g
           id="g1033"><g
             id="g1029"><path
               class="cls-7"
               d="m 554.96,87.17 -21.28,15.47 c -1.33,0.96 -1.89,2.68 -1.38,4.25 l 8.13,25.02 c 0.66,2.06 -0.44,3.91 -2.06,4.64 -1.16,0.54 -2.57,0.51 -3.8,-0.39 l -21.28,-15.45 c -1.34,-0.97 -3.14,-0.97 -4.49,0 l -21.28,15.45 c -1.17,0.85 -2.5,0.91 -3.62,0.48 -1.73,-0.68 -2.94,-2.6 -2.24,-4.73 l 8.13,-25.02 c 0.24,-0.74 0.24,-1.52 0.04,-2.23 -0.23,-0.8 -0.72,-1.52 -1.43,-2.02 L 467.12,87.17 c -0.94,-0.68 -1.44,-1.63 -1.55,-2.61 -0.24,-2.08 1.27,-4.29 3.79,-4.29 h 26.3 c 1.66,0 3.12,-1.06 3.63,-2.63 l 8.13,-25.01 c 1.13,-3.51 6.11,-3.51 7.24,0 l 8.13,25.01 c 0.51,1.57 1.97,2.63 3.62,2.63 h 26.31 c 3.69,0 5.22,4.73 2.23,6.9 z"
               id="path1023" /><path
               class="cls-1"
               d="m 538.37,136.56 c -1.16,0.54 -2.57,0.51 -3.8,-0.39 l -21.28,-15.45 c -1.34,-0.97 -3.14,-0.97 -4.49,0 l -21.28,15.45 c -1.17,0.85 -2.5,0.91 -3.62,0.48 l 26.19,-31.38 28.28,31.3 z"
               id="path1025" /><path
               class="cls-1"
               d="m 495.15,96.68 -5.33,7.98 c -0.23,-0.8 -0.72,-1.52 -1.43,-2.02 L 467.11,87.17 c -0.94,-0.68 -1.44,-1.63 -1.55,-2.61 l 29.58,12.12 z"
               id="path1027" /></g><path
             class="cls-10"
             d="m 512,56.62 6.99,24.48 c 0,0 -6.68,-4.77 -6.99,-6.99 -0.32,-2.23 0,-17.49 0,-17.49 z"
             id="path1031" /></g></g></g></g></svg>
