<?xml version="1.0" encoding="utf-8"?><!-- Uploaded to: SVG Repo, www.svgrepo.com, Generator: SVG Repo Mixer Tools -->
<svg width="800px" height="800px" viewBox="0 0 960 960" fill="none" xmlns="http://www.w3.org/2000/svg">
<path d="M466.323 958.989C457.457 958.735 448.592 958.735 439.726 958.229C433.647 957.975 427.442 957.722 421.616 956.456C417.69 955.569 414.143 952.909 410.85 950.377C406.798 947.21 405.658 942.778 406.164 937.458C408.318 914.788 410.217 892.118 412.244 869.574C412.877 862.102 413.637 854.63 414.27 847.158C414.397 845.258 414.523 843.485 414.65 840.952C413.51 841.712 412.877 841.965 412.244 842.345C389.573 858.936 363.737 867.548 336.381 871.854C306.238 876.667 275.969 876.287 245.573 873.754C234.555 872.867 223.41 873.121 212.518 871.854C199.726 870.461 188.201 864.888 177.183 858.429C176.17 857.796 175.157 856.909 174.397 855.896C171.737 852.73 173.13 848.931 177.31 848.297C192.254 845.764 206.059 839.939 218.597 831.706C258.618 805.363 293.194 772.941 322.069 734.693C329.162 725.321 335.368 715.316 341.953 705.564C341.573 705.31 341.32 704.931 340.94 704.677C340.307 704.804 339.547 704.931 338.914 705.184C322.956 711.643 306.365 715.569 289.394 718.229C281.035 719.495 273.056 722.915 264.824 724.688C246.967 728.614 229.109 732.16 211.252 735.833C208.085 736.466 205.299 735.833 203.906 732.667C202.639 729.5 204.159 727.221 206.819 725.701C219.99 718.355 230.756 708.223 239.621 696.065C244.94 688.846 254.945 682.514 260.138 675.168C260.771 674.281 324.349 603.865 345.12 536.234C345.753 535.094 346.259 534.081 347.146 532.181C343.093 532.941 339.8 533.574 336.634 534.208C321.816 537.374 306.998 541.173 292.054 543.453C272.423 546.493 252.539 548.519 232.782 550.799C229.869 551.179 226.703 550.925 223.663 550.292C217.584 549.026 215.811 543.326 220.244 538.894C221.51 537.627 222.903 536.487 224.296 535.474C234.682 528.255 245.32 521.163 255.579 513.69C258.492 511.537 260.898 508.624 263.178 505.838C270.397 497.226 277.742 488.614 284.708 479.748C288.634 474.809 291.547 469.11 295.22 463.917C304.592 450.239 314.597 436.814 323.463 422.883C336.001 403.252 347.906 383.369 359.684 363.358C367.03 350.946 373.996 338.281 380.708 325.617C384.887 317.638 387.927 309.152 391.98 301.047C397.806 289.522 404.138 278.123 409.964 266.598C416.296 254.06 422.629 241.395 428.708 228.73C438.967 207.073 448.845 185.163 459.104 163.506C464.803 151.474 465.69 143.369 462.27 125.764C449.099 137.163 436.307 148.308 422.756 160.086C423.135 158.566 423.135 157.68 423.515 156.92C428.328 143.115 433.014 129.311 437.953 115.632C438.967 112.72 438.713 111.326 436.18 109.427C422.249 99.4213 408.571 89.1628 394.766 78.9042C393.753 78.1443 392.74 77.3844 391.347 76.2446C392.486 75.8646 393.373 75.4847 394.259 75.2314C410.091 71.8119 426.048 68.3923 441.88 65.2261C444.666 64.5929 446.059 63.453 446.945 60.6667C453.025 41.9227 459.357 23.3053 465.563 4.68784C465.943 3.67465 466.323 2.53481 466.956 0.761719C467.969 2.40816 468.602 3.548 469.236 4.68784C478.354 22.0388 487.6 39.5163 496.592 56.9939C498.112 59.9068 499.505 60.92 502.924 60.1601C520.782 56.8673 538.639 53.9543 556.624 50.9147C557.004 50.9147 557.383 50.9148 558.27 51.0414C550.544 57.2472 543.199 63.0731 535.98 68.8989C525.975 76.8778 515.969 84.9834 505.837 92.8356C503.684 94.482 503.304 96.0018 504.064 98.5348C509.763 117.785 515.209 137.036 520.782 156.287C520.909 156.793 521.035 157.173 521.288 158.44C508.37 147.168 495.832 136.403 482.534 124.878C483.167 131.844 484.054 137.669 484.307 143.495C484.56 149.068 486.333 154.007 489.246 158.82C492.539 164.392 495.452 170.218 498.365 175.917C512.803 204.793 526.228 234.176 541.932 262.292C558.523 292.181 576.887 321.057 595.125 349.933C605.637 366.524 617.668 382.229 628.814 398.44C687.579 499.506 760.655 509.891 762.302 516.857C763.315 521.289 760.529 523.316 757.362 525.216C735.452 538.26 711.895 546.746 687.072 552.572C667.188 557.258 647.051 559.157 626.534 557.638C625.141 557.511 623.748 557.384 622.354 557.258C620.961 557.131 619.568 557.004 617.542 556.751C618.428 558.144 618.808 559.157 619.568 560.044C629.32 572.202 639.199 584.361 648.951 596.519C651.737 599.938 654.27 603.611 657.436 606.651C662.122 611.21 667.062 615.643 672.381 619.569C684.033 628.055 695.558 636.92 707.969 644.266C726.84 655.411 746.977 663.77 769.394 664.403C772.687 664.529 772.814 666.556 771.8 668.456C771.04 670.102 769.267 671.622 767.621 672.508C758.249 677.701 748.877 683.147 739.125 687.706C722.407 695.685 706.829 705.817 688.465 710.377C662.376 716.836 636.159 722.028 609.056 718.735C608.043 718.609 607.03 718.609 606.017 718.609C605.763 718.609 605.637 718.862 605.004 719.115C607.537 721.902 609.943 724.561 612.602 727.094C621.468 735.96 629.7 745.585 639.325 753.564C659.969 770.661 680.486 788.266 703.663 802.197C714.808 808.909 725.067 817.015 735.705 824.614C741.911 829.047 747.737 834.113 754.323 837.659C762.935 842.345 770.66 848.804 780.792 850.83C784.339 851.464 786.238 854.503 786.238 858.176C786.238 862.102 783.959 864.762 780.286 865.648C774.713 866.915 769.014 867.675 763.442 868.814C740.011 873.5 716.455 874.767 692.645 872.234C672.254 870.081 653.383 863.242 634.386 856.783C597.658 844.498 561.183 831.58 524.708 818.915C523.568 818.535 522.302 818.155 521.288 817.902C521.288 823.221 521.035 828.413 521.288 833.606C522.935 868.688 524.581 903.643 526.228 938.725C526.734 948.097 522.048 954.809 513.183 957.849C512.55 958.102 511.79 958.482 511.157 958.735C496.339 958.989 481.394 958.989 466.323 958.989ZM374.376 352.466C382.481 359.812 390.46 367.411 398.819 374.63C414.397 388.181 432.761 397.3 450.618 407.179C476.328 421.49 503.811 430.482 532.94 433.902C540.919 434.915 549.025 435.675 558.143 436.688C555.99 438.588 554.217 439.854 552.824 441.5C548.518 446.44 545.478 452.139 546.492 458.851C548.011 468.983 551.431 478.609 558.903 486.081C566.882 494.06 576.381 498.999 587.653 496.719C597.911 494.693 606.397 488.994 609.563 478.229C612.982 466.197 614.249 454.292 603.864 444.667C600.697 441.627 597.405 438.714 594.365 436.055C608.043 432.762 622.101 429.342 636.286 425.796C633.12 421.237 630.08 417.437 627.927 413.258C625.901 409.332 623.494 409.078 619.695 410.345C574.988 424.403 530.914 418.83 487.726 404.012C465.183 396.287 444.666 383.495 424.022 371.464C418.703 368.297 413.763 364.498 408.951 360.572C400.592 353.733 392.486 346.514 384.381 339.548C383.621 338.915 382.861 338.408 382.228 338.028C379.695 342.841 377.162 347.4 374.376 352.466ZM308.265 458.092C305.478 462.144 303.199 465.944 300.539 469.49C299.019 471.39 299.019 472.783 300.539 474.429C312.191 488.867 322.703 504.445 335.748 517.363C362.977 544.34 394.259 565.997 428.328 583.474C461.637 600.572 496.719 612.35 532.94 621.595C572.201 631.601 611.716 634.767 651.99 630.461C657.816 629.828 663.642 628.814 669.468 628.055C669.721 627.675 669.848 627.295 670.101 626.915C669.468 626.535 668.708 626.281 668.075 625.902C663.769 622.229 658.829 618.936 655.283 614.503C652.624 611.21 650.217 611.463 646.924 611.843C626.281 613.87 605.51 614.756 584.866 612.223C542.439 607.157 501.405 596.012 462.143 579.168C405.278 554.851 356.645 519.643 317.89 471.136C314.597 466.957 311.684 462.651 308.265 458.092ZM333.595 736.72C338.027 738.746 342.207 740.899 346.513 742.672C367.03 751.411 387.547 760.15 408.191 768.888C418.829 773.448 429.088 778.894 440.106 782.06C473.795 791.812 508.37 795.865 543.579 795.485C570.555 795.231 595.885 789.279 619.568 776.107C625.014 773.068 630.333 769.775 635.906 766.482C630.967 761.416 626.534 756.73 622.101 752.044C621.975 752.044 621.721 752.044 621.468 752.171C619.442 753.311 617.542 754.577 615.515 755.717C599.304 765.089 582.333 772.308 563.589 774.461C533.953 777.754 504.571 776.994 475.188 771.168C458.724 767.875 442.386 764.709 426.935 757.617C406.291 748.118 385.521 738.999 364.624 730.007C357.658 726.968 350.566 724.435 343.473 721.775C340.56 726.461 337.394 731.147 333.595 736.72ZM489.753 923.907C488.613 888.698 487.6 854.883 486.46 820.435C470.629 821.321 454.418 817.522 438.333 821.828C438.333 830.82 438.587 839.938 438.333 848.931C437.573 870.334 436.434 891.738 435.42 913.268C435.42 914.661 435.294 916.055 435.42 917.448C436.054 921.501 438.587 925.553 444.413 924.793C449.605 924.16 454.798 924.033 459.99 924.033C469.869 923.907 479.621 923.907 489.753 923.907ZM472.782 476.202C472.782 474.936 472.782 473.669 472.782 472.403C472.655 456.445 464.043 446.06 448.339 443.147C445.299 442.64 442.386 442.007 439.347 441.627C431.494 440.614 423.262 440.107 417.436 446.313C407.938 456.318 401.225 469.87 407.558 484.055C411.61 493.173 415.916 502.039 424.022 508.371C434.407 516.35 445.806 516.477 456.318 508.624C466.956 500.519 474.302 490.64 472.782 476.202ZM451.125 346.387C452.391 346.134 454.671 346.007 456.824 345.247C471.389 340.181 481.774 320.677 477.974 305.606C474.682 292.435 465.563 283.949 454.544 277.617C444.539 271.917 433.521 274.957 427.315 284.202C423.515 289.775 420.223 295.601 417.31 301.68C413.383 310.039 414.397 318.271 419.589 325.87C421.489 328.656 423.642 331.189 425.415 333.975C431.114 343.221 440.106 345.88 451.125 346.387ZM504.318 729.247C503.811 743.559 507.104 748.245 520.022 751.917C520.275 752.044 520.529 752.044 520.782 752.171C532.054 755.337 542.692 754.197 553.331 749.131C564.602 743.812 567.009 726.334 561.563 718.735C558.017 713.796 554.091 709.11 549.531 705.057C539.399 696.065 522.302 698.851 514.829 706.197C508.497 712.529 502.924 720.128 504.318 729.247ZM348.286 623.115C349.172 636.793 354.998 645.785 365.51 651.991C375.515 657.944 397.552 653.004 401.225 636.54C402.112 632.867 402.998 629.068 403.505 625.395C404.518 617.036 403.505 608.931 395.779 604.118C390.333 600.698 384.001 598.039 377.668 596.519C364.75 593.606 355.378 599.305 350.819 611.843C349.552 615.77 349.046 620.202 348.286 623.115Z" fill="#000000"/>
<path d="M374.375 352.463C377.161 347.27 379.694 342.838 382.354 337.898C382.987 338.405 383.747 338.785 384.507 339.418C392.739 346.384 400.845 353.603 409.077 360.442C413.89 364.368 418.829 368.168 424.148 371.334C444.792 383.365 465.182 396.157 487.853 403.883C531.04 418.701 575.114 424.273 619.821 410.215C623.62 408.949 626.027 409.202 628.053 413.128C630.206 417.307 633.246 421.107 636.412 425.666C622.101 429.086 608.169 432.505 594.491 435.925C597.404 438.584 600.697 441.497 603.99 444.537C614.375 454.289 613.109 466.194 609.689 478.099C606.523 488.864 598.037 494.563 587.779 496.59C576.38 498.869 566.882 493.804 559.029 485.951C551.557 478.479 548.138 468.854 546.618 458.722C545.605 452.009 548.644 446.31 552.95 441.371C554.343 439.724 556.116 438.584 558.269 436.558C549.151 435.545 541.045 434.785 533.066 433.772C503.81 430.226 476.454 421.36 450.744 407.049C432.887 397.17 414.523 388.052 398.945 374.5C390.459 367.408 382.481 359.809 374.375 352.463Z" fill="white"/>
<path d="M308.263 458.09C311.556 462.649 314.595 467.082 317.888 471.135C356.516 519.768 405.276 554.85 462.141 579.166C501.402 596.011 542.437 607.156 584.864 612.222C605.508 614.628 626.278 613.868 646.922 611.842C650.215 611.462 652.621 611.209 655.281 614.501C658.701 618.934 663.64 622.1 668.073 625.9C668.579 626.406 669.339 626.66 670.099 626.913C669.846 627.293 669.719 627.673 669.466 628.053C663.64 628.813 657.814 629.826 651.988 630.459C611.84 634.765 572.199 631.599 532.938 621.594C496.716 612.348 461.635 600.57 428.326 583.472C394.131 565.868 362.848 544.211 335.745 517.362C322.701 504.443 312.189 488.739 300.537 474.428C299.144 472.654 299.144 471.388 300.537 469.488C303.197 465.942 305.603 462.143 308.263 458.09Z" fill="white"/>
<path d="M333.594 736.718C337.267 731.145 340.433 726.459 343.599 721.773C350.691 724.56 357.784 726.966 364.749 730.006C385.52 739.124 406.417 748.243 427.061 757.615C442.512 764.707 458.85 767.874 475.314 771.167C504.57 776.992 534.079 777.752 563.715 774.459C582.459 772.306 599.43 765.087 615.641 755.715C617.668 754.576 619.567 753.436 621.594 752.169C621.847 752.043 622.1 752.043 622.227 752.043C626.66 756.729 631.092 761.415 636.032 766.481C630.459 769.773 625.14 773.066 619.694 776.106C596.137 789.151 570.807 795.23 543.705 795.483C508.496 795.863 473.921 791.81 440.232 782.058C429.214 778.892 418.829 773.32 408.317 768.887C387.8 760.148 367.156 751.409 346.639 742.671C342.206 740.897 338.026 738.744 333.594 736.718Z" fill="white"/>
<path d="M489.752 923.904C479.494 923.904 469.742 923.777 459.99 923.904C454.797 923.904 449.604 924.03 444.412 924.664C438.586 925.424 436.053 921.371 435.42 917.318C435.166 915.925 435.293 914.532 435.42 913.139C436.433 891.735 437.446 870.331 438.333 848.801C438.713 839.809 438.333 830.817 438.333 821.698C454.417 817.265 470.628 821.191 486.459 820.305C487.599 855.007 488.739 888.822 489.752 923.904Z" fill="white"/>
<path d="M472.775 476.199C474.294 490.511 467.075 500.389 456.184 508.495C445.798 516.22 434.4 516.22 423.888 508.241C415.656 501.909 411.476 493.044 407.424 483.925C401.091 469.74 407.804 456.189 417.302 446.183C423.128 439.978 431.36 440.484 439.213 441.497C442.252 441.877 445.165 442.511 448.205 443.017C463.909 445.93 472.521 456.315 472.648 472.273C472.775 473.666 472.775 474.933 472.775 476.199Z" fill="white"/>
<path d="M451.122 346.386C439.976 345.879 431.111 343.093 425.285 333.974C423.512 331.188 421.359 328.655 419.459 325.868C414.267 318.27 413.254 310.037 417.18 301.679C420.093 295.599 423.385 289.647 427.185 284.201C433.391 274.956 444.409 272.043 454.414 277.615C465.433 283.821 474.678 292.306 477.845 305.605C481.517 320.676 471.259 340.18 456.694 345.246C454.794 346.006 452.388 346.132 451.122 346.386Z" fill="white"/>
<path d="M504.317 729.244C502.924 720.125 508.497 712.526 514.829 706.194C522.301 698.721 539.399 695.935 549.531 705.054C554.09 709.107 558.016 713.793 561.563 718.732C567.008 726.331 564.602 743.808 553.33 749.128C542.692 754.194 532.053 755.333 520.782 752.167C520.528 752.041 520.275 752.041 520.022 751.914C507.23 748.241 503.811 743.555 504.317 729.244Z" fill="white"/>
<path d="M348.281 623.114C348.914 620.201 349.548 615.768 350.941 611.842C355.374 599.304 364.746 593.604 377.79 596.517C384.123 597.91 390.329 600.697 395.901 604.116C403.627 608.929 404.64 617.034 403.627 625.393C403.12 629.193 402.107 632.866 401.347 636.538C397.674 653.003 375.637 657.942 365.632 651.99C355.12 645.784 349.168 636.792 348.281 623.114Z" fill="white"/>
</svg>